<?xml version="1.0" encoding="UTF-8"?>
<svg id="Laag_5" data-name="Laag 5" xmlns="http://www.w3.org/2000/svg" viewBox="0 0 760.54 837.19">
  <defs>
    <style>
      .cls-1 {
        fill: none;
      }

      .cls-2 {
        fill: #58b8c5;
      }

      .cls-3 {
        fill: #fff;
      }
    </style>
  </defs>
  <g>
    <path id="Path_46" data-name="Path 46" d="M687.02,369.47c0-176.92-144.75-321.67-321.67-321.67h0c-176.92,0-321.67,144.75-321.67,321.67h0v294.35s98.51,15.34,224.25,23.58l53.13,112.2,89.42-81.97,20.7,81.97,59.62-67.89,67.89,67.89,30.87-118.09c29.62-4.33,57.49-10.12,82.56-17.7l13.26-261.83c1.1-10.8,1.65-21.66,1.64-32.52h0Z"/>
    <path id="Path_46-2" data-name="Path 46" d="M365.36,47.8c176.92,0,321.67,144.75,321.67,321.67h0c0,10.86-.55,21.71-1.64,32.51l-13.26,261.83c-25.07,7.58-52.94,13.37-82.56,17.7l-30.87,118.09-67.89-67.89-59.62,67.89-20.7-81.97-89.42,81.97-53.13-112.2c-125.73-8.25-224.25-23.58-224.25-23.58v-294.35c0-176.92,144.75-321.67,321.67-321.67M365.36,29.81c-45.66,0-90.05,9.02-131.93,26.81-40.4,17.17-76.73,41.71-107.97,72.95-31.24,31.24-55.78,67.56-72.94,107.97-17.79,41.88-26.81,86.27-26.81,131.93v309.75l15.22,2.37c.96.15,95.18,14.7,215.27,23.05l48.61,102.66,10.44,22.04,17.98-16.48,67.2-61.6,13.32,52.74,8.38,33.18,22.58-25.72,46.95-53.47,54.32,54.32,22.19,22.19,7.94-30.36,27.88-106.66c27.08-4.39,51.71-9.91,73.35-16.46l12.12-3.66.64-12.65,13.24-261.38c1.12-11.21,1.69-22.61,1.69-33.88l-2.64-42.45h0c-3.86-30.74-11.95-60.7-24.17-89.48-17.16-40.4-41.71-76.73-72.95-107.97-31.24-31.24-67.56-55.78-107.97-72.95-41.88-17.79-86.27-26.81-131.93-26.81h0Z"/>
  </g>
  <g>
    <path id="Path_46-3" data-name="Path 46" class="cls-2" d="M661.32,339.66c0-176.92-144.75-321.67-321.67-321.67h0C162.74,17.99,17.99,162.74,17.99,339.66h0v294.35s98.51,15.34,224.25,23.58l53.13,112.2,89.42-81.97,20.7,81.97,59.62-67.89,67.89,67.89,30.87-118.09c29.62-4.33,57.49-10.12,82.56-17.7l13.26-261.83c1.1-10.8,1.65-21.66,1.64-32.52h0Z"/>
    <path id="Path_46-4" data-name="Path 46" d="M339.66,17.99c176.92,0,321.67,144.75,321.67,321.67h0c0,10.86-.55,21.71-1.64,32.51l-13.26,261.83c-25.07,7.58-52.94,13.37-82.56,17.7l-30.87,118.09-67.89-67.89-59.62,67.89-20.7-81.97-89.42,81.97-53.13-112.2c-125.73-8.25-224.25-23.58-224.25-23.58v-294.35C17.99,162.74,162.74,17.99,339.66,17.99M339.66,0c-45.66,0-90.05,9.02-131.93,26.81-40.4,17.17-76.73,41.71-107.97,72.95-31.24,31.24-55.78,67.56-72.94,107.97C9.02,249.61,0,294,0,339.66v309.75l15.22,2.37c.96.15,95.18,14.7,215.27,23.05l48.61,102.66,10.44,22.04,17.98-16.48,67.2-61.6,13.32,52.74,8.38,33.18,22.58-25.72,46.95-53.47,54.32,54.32,22.19,22.19,7.94-30.36,27.88-106.66c27.08-4.39,51.71-9.91,73.35-16.46l12.12-3.66.64-12.65,13.24-261.38c1.12-11.21,1.69-22.61,1.69-33.88v-45.25s-2.64,2.8-2.64,2.8c-3.86-30.74-11.95-60.7-24.17-89.48-17.16-40.4-41.71-76.73-72.95-107.97-31.24-31.24-67.56-55.78-107.97-72.95C429.71,9.02,385.32,0,339.66,0h0Z"/>
  </g>
  <g id="Bril">
    <circle cx="612.5" cy="415.74" r="148.04"/>
    <circle cx="271.15" cy="415.74" r="148.18"/>
    <g>
      <path class="cls-1" d="M323.65,393.88c-.28-1.17-.6-2.3-.96-3.39.49,1.04.96,2.13,1.41,3.27l-.45.12Z"/>
      <path class="cls-1" d="M322.69,390.49c-2.36-5.04-5.15-8.95-8.11-12.26,3.72,2.89,6.39,7.12,8.11,12.26Z"/>
      <path d="M325.79,495.15c-12.79-23.03-16.2-30.7-6.82-56.29,5.78-15.75,7.66-32.47,4.69-44.99l.45-.12c-.45-1.15-.92-2.23-1.41-3.27-1.71-5.14-4.39-9.37-8.11-12.26-7.62-8.53-16.29-13.12-21.27-22.88-10.31-20.2-16.37-45.39-26.82-65.89.55-4.25-.23-7.7-1.26-10.94,1.97-.08,3.94-.14,5.93-.14,75.86,0,137.35,61.5,137.35,137.35,0,45.32-21.96,85.51-55.81,110.53-10.35-9.51-21.23-20.9-26.91-31.12Z"/>
      <path d="M225.94,286.02c.55,3.87.68,7.32,5.87,10.89,3.34,23.76,11.29,46.96,15.11,70.58,1.96,12.13-4.72,24.31-5.43,36.9h0c-3.41,29-36.87,80.54,2.4,132.56,4.11,5.44,8.05,10.52,11.83,15.29-68.59-7.68-121.91-65.85-121.91-136.48,0-60.02,38.5-111.04,92.14-129.73Z"/>
      <path class="cls-3" d="M241.49,404.38h0c.72-12.59,7.39-24.77,5.43-36.9-3.82-23.62-11.77-46.82-15.11-70.58-5.19-3.57-5.32-7.02-5.87-10.89,12.38-4.31,25.57-6.91,39.28-7.49,1.03,3.24,1.81,6.69,1.26,10.94,10.45,20.5,16.51,45.69,26.82,65.89,4.98,9.76,13.66,14.35,21.27,22.88,2.95,3.31,5.75,7.22,8.11,12.26.36,1.09.69,2.22.96,3.39,2.98,12.52,1.09,29.23-4.69,44.99-9.38,25.58-5.97,33.26,6.82,56.29,5.68,10.22,16.56,21.61,26.91,31.12-22.81,16.85-51.01,26.82-81.54,26.82-5.22,0-10.37-.3-15.44-.87-3.78-4.76-7.72-9.84-11.83-15.29-39.26-52.02-5.81-103.56-2.4-132.56Z"/>
    </g>
    <g>
      <path class="cls-1" d="M676.55,392.16c-.3-1.26-.65-2.48-1.04-3.66.53,1.13,1.04,2.29,1.52,3.53l-.48.13Z"/>
      <path class="cls-1" d="M675.51,388.5c-2.54-5.43-5.56-9.65-8.74-13.22,4.01,3.11,6.9,7.68,8.74,13.22Z"/>
      <path d="M667.08,495.07c-12.78-23-16.19-30.67-6.82-56.23,5.77-15.74,7.66-32.44,4.68-44.94l.45-.12c-.45-1.14-.92-2.23-1.41-3.27-1.71-5.13-4.38-9.36-8.1-12.24-7.61-8.52-16.27-13.1-21.25-22.86-10.3-20.18-16.35-45.35-26.79-65.83.55-4.25-.23-7.69-1.26-10.93,1.96-.08,3.94-.14,5.92-.14,75.78,0,137.22,61.43,137.22,137.22,0,45.28-21.93,85.43-55.75,110.42-10.34-9.5-21.21-20.88-26.88-31.09Z"/>
      <path d="M567.34,286.14c.55,3.87.68,7.31,5.86,10.88,3.34,23.74,11.28,46.91,15.1,70.51,1.96,12.12-4.71,24.28-5.43,36.86h0c-3.41,28.97-36.83,80.46,2.39,132.43,4.1,5.44,8.04,10.51,11.81,15.27-68.52-7.67-121.79-65.78-121.79-136.35,0-59.96,38.46-110.93,92.05-129.6Z"/>
      <path class="cls-3" d="M582.86,404.4h0c.71-12.58,7.38-24.75,5.43-36.87-3.81-23.6-11.76-46.77-15.1-70.51-5.18-3.56-5.32-7.01-5.86-10.88,12.37-4.31,25.55-6.9,39.24-7.48,1.03,3.24,1.81,6.68,1.26,10.93,10.44,20.48,16.49,45.64,26.79,65.83,4.98,9.75,13.64,14.33,21.25,22.86,2.95,3.31,5.74,7.21,8.1,12.24.36,1.09.69,2.22.96,3.39,2.98,12.5,1.09,29.2-4.68,44.94-9.37,25.56-5.96,33.23,6.82,56.23,5.67,10.21,16.54,21.59,26.88,31.09-22.78,16.84-50.96,26.8-81.46,26.8-5.22,0-10.36-.3-15.43-.87-3.77-4.76-7.71-9.83-11.81-15.27-39.22-51.97-5.8-103.46-2.39-132.43Z"/>
    </g>
    <rect x="401.66" y="396.46" width="70.07" height="38.57"/>
  </g>
</svg>