<?xml version="1.0" encoding="UTF-8"?>
<svg id="Laag_5" data-name="Laag 5" xmlns="http://www.w3.org/2000/svg" viewBox="0 0 693.84 986.28">
  <defs>
    <style>
      .cls-1 {
        fill: none;
      }

      .cls-2 {
        fill: #fff;
      }

      .cls-3 {
        fill: #e378de;
      }
    </style>
  </defs>
  <g id="YVlhsr">
    <g>
      <path d="M466.68,151.78c1.5,241.22,297.7,389.44,197.85,643.95-120.89,308.13-625.71,211.43-560-191.67C140.86,381.18,331.76,210.67,476.5,53.16c3.05-2.54,5.1-3.13,6.46-2.56,4.08,1.71,1.93,13.79,1.87,14.44-2.65,26.55-18.31,61.05-18.15,86.74Z"/>
      <path d="M396.34,986.28c-28.42,0-57.07-3.81-85.09-11.5-71.65-19.65-132.58-63.35-171.57-123.04-44.19-67.64-59.33-153.77-43.79-249.08,14.15-86.81,52.68-173.4,117.77-264.72,56.99-79.95,125.95-152.58,192.64-222.81,22.25-23.43,43.26-45.57,63.76-67.87l.39-.43.45-.37c5.5-4.58,10.69-5.9,15.45-3.91,10.03,4.2,7.89,18.68,7.19,23.43v.1c-1.29,12.58-5.24,26.61-9.05,40.18-4.49,15.97-9.14,32.49-9.05,45.47.63,101.89,56.34,188.61,110.2,272.48,35.59,55.41,72.39,112.71,92.36,173.38,10.85,32.97,16.03,64.31,15.84,95.79-.22,35.3-7.14,69.82-21.16,105.55-29.33,74.75-82.18,130.69-152.83,161.75-38.67,17-80.82,25.6-123.5,25.6ZM475.82,66.81c-18.33,19.8-37.09,39.57-56.83,60.35-66.27,69.8-134.8,141.97-191.08,220.92-63.5,89.08-101.04,173.27-114.75,257.38-14.82,90.92-.59,172.77,41.17,236.69,36.65,56.11,94.03,97.21,161.55,115.74,26.5,7.27,53.6,10.88,80.47,10.88,40.27,0,80-8.1,116.45-24.12,66.33-29.16,115.98-81.77,143.58-152.12,54.99-140.17-13.24-246.4-85.47-358.87-55.22-85.97-112.31-174.86-112.98-281.83-.1-15.45,4.89-33.17,9.71-50.32,3.5-12.44,6.82-24.24,8.18-34.7Z"/>
    </g>
  </g>
  <g id="YVlhsr-2" data-name="YVlhsr">
    <g>
      <path class="cls-3" d="M434.95,118.87c1.5,241.22,297.7,389.44,197.85,643.95C511.9,1070.95,7.08,974.26,72.8,571.15,109.13,348.28,300.03,177.76,444.77,20.26c12.2-10.17,8.41,11.01,8.33,11.88-2.65,26.55-18.31,61.05-18.15,86.74Z"/>
      <path d="M450.19,17.5c5.46,0,2.98,13.94,2.91,14.64-2.65,26.55-18.31,61.05-18.15,86.74,1.5,241.22,297.7,389.44,197.85,643.95-48.35,123.24-158.17,181.74-268.29,181.74-165.2,0-331.14-131.53-291.71-373.41C109.13,348.28,300.03,177.76,444.77,20.26c2.35-1.96,4.11-2.76,5.42-2.76M450.19,0h0c-5.68,0-11.12,2.23-16.62,6.82l-.89.74-.79.86c-20.45,22.25-41.44,44.36-63.67,67.77-66.89,70.45-136.07,143.31-193.41,223.76-31.29,43.89-55.87,85.52-75.16,127.28-21.66,46.88-36.5,94.36-44.12,141.11-9.5,58.27-7.9,113.02,4.77,162.73,11.76,46.15,32.78,87.28,62.5,122.23,14.93,17.57,32.04,33.46,50.84,47.25,18.2,13.35,38.09,24.8,59.12,34.02,40.99,17.98,86.55,27.49,131.77,27.49,60.26,0,117.9-16.38,166.69-47.38,25.8-16.39,48.77-36.69,68.26-60.33,20.53-24.9,37.23-53.54,49.62-85.13,14.42-36.75,21.54-72.3,21.76-108.69.2-32.45-5.12-64.69-16.28-98.58-20.32-61.73-57.43-119.5-93.31-175.38-26.85-41.8-54.61-85.02-75.03-129.42-10.83-23.56-18.8-45.57-24.37-67.31-6.19-24.19-9.27-47.43-9.42-71.07-.07-11.74,4.4-27.66,8.73-43.05,3.9-13.86,7.93-28.19,9.3-41.47,2.41-16.44-1.7-23.42-5.01-27.25-3.84-4.45-9.41-7-15.28-7h0Z"/>
    </g>
  </g>
  <g id="Bril">
    <circle cx="148.04" cy="574.54" r="148.04"/>
    <path d="M637.57,574.54c0,81.84-66.34,148.18-148.18,148.18-81.84,0-148.18-66.34-148.18-148.18s66.34-148.18,148.18-148.18c81.84,0,148.18,66.34,148.18,148.18Z"/>
    <g>
      <path class="cls-1" d="M436.89,552.67c.28-1.17.6-2.3.96-3.39-.49,1.04-.96,2.13-1.41,3.27l.45.12Z"/>
      <path class="cls-1" d="M437.85,549.28c2.36-5.04,5.15-8.95,8.11-12.26-3.72,2.89-6.39,7.12-8.11,12.26Z"/>
      <path d="M434.75,653.95c12.79-23.03,16.2-30.7,6.82-56.29-5.78-15.75-7.66-32.47-4.69-44.99l-.45-.12c.45-1.15.92-2.23,1.41-3.27,1.71-5.14,4.39-9.37,8.11-12.26,7.62-8.53,16.29-13.12,21.27-22.88,10.31-20.2,16.37-45.39,26.82-65.89-.55-4.25.23-7.7,1.26-10.94-1.97-.08-3.94-.14-5.93-.14-75.86,0-137.35,61.5-137.35,137.35,0,45.32,21.96,85.51,55.81,110.53,10.35-9.51,21.23-20.9,26.91-31.12Z"/>
      <path d="M534.59,444.81c-.55,3.87-.68,7.32-5.87,10.89-3.34,23.76-11.29,46.96-15.11,70.58-1.96,12.13,4.72,24.31,5.43,36.9h0c3.41,29,36.87,80.54-2.4,132.56-4.11,5.44-8.05,10.52-11.83,15.29,68.59-7.68,121.91-65.85,121.91-136.48,0-60.02-38.5-111.04-92.14-129.73Z"/>
      <path class="cls-2" d="M519.05,563.18h0c-.72-12.59-7.39-24.77-5.43-36.9,3.82-23.62,11.77-46.82,15.11-70.58,5.19-3.57,5.32-7.02,5.87-10.89-12.38-4.31-25.57-6.91-39.28-7.49-1.03,3.24-1.81,6.69-1.26,10.94-10.45,20.5-16.51,45.69-26.82,65.89-4.98,9.76-13.66,14.35-21.27,22.88-2.95,3.31-5.75,7.22-8.11,12.26-.36,1.09-.69,2.22-.96,3.39-2.98,12.52-1.09,29.23,4.69,44.99,9.38,25.58,5.97,33.26-6.82,56.29-5.68,10.22-16.56,21.61-26.91,31.12,22.81,16.85,51.01,26.82,81.54,26.82,5.22,0,10.37-.3,15.44-.87,3.78-4.76,7.72-9.84,11.83-15.29,39.26-52.02,5.81-103.56,2.4-132.56Z"/>
    </g>
    <g>
      <path class="cls-1" d="M83.99,550.95c.3-1.26.65-2.48,1.04-3.66-.53,1.13-1.04,2.29-1.52,3.53l.48.13Z"/>
      <path class="cls-1" d="M85.03,547.29c2.54-5.43,5.56-9.65,8.74-13.22-4.01,3.11-6.9,7.68-8.74,13.22Z"/>
      <path d="M93.45,653.87c12.78-23,16.19-30.67,6.82-56.23-5.77-15.74-7.66-32.44-4.68-44.94l-.45-.12c.45-1.14.92-2.23,1.41-3.27,1.71-5.13,4.38-9.36,8.1-12.24,7.61-8.52,16.27-13.1,21.25-22.86,10.3-20.18,16.35-45.35,26.79-65.83-.55-4.25.23-7.69,1.26-10.93-1.96-.08-3.94-.14-5.92-.14-75.78,0-137.22,61.43-137.22,137.22,0,45.28,21.93,85.43,55.75,110.42,10.34-9.5,21.21-20.88,26.88-31.09Z"/>
      <path d="M193.2,444.94c-.55,3.87-.68,7.31-5.86,10.88-3.34,23.74-11.28,46.91-15.1,70.51-1.96,12.12,4.71,24.28,5.43,36.86h0c3.41,28.97,36.83,80.46-2.39,132.43-4.1,5.44-8.04,10.51-11.81,15.27,68.52-7.67,121.79-65.78,121.79-136.35,0-59.96-38.46-110.93-92.05-129.6Z"/>
      <path class="cls-2" d="M177.67,563.19h0c-.71-12.58-7.38-24.75-5.43-36.87,3.81-23.6,11.76-46.77,15.1-70.51,5.18-3.56,5.32-7.01,5.86-10.88-12.37-4.31-25.55-6.9-39.24-7.48-1.03,3.24-1.81,6.68-1.26,10.93-10.44,20.48-16.49,45.64-26.79,65.83-4.98,9.75-13.64,14.33-21.25,22.86-2.95,3.31-5.74,7.21-8.1,12.24-.36,1.09-.69,2.22-.96,3.39-2.98,12.5-1.09,29.2,4.68,44.94,9.37,25.56,5.96,33.23-6.82,56.23-5.67,10.21-16.54,21.59-26.88,31.09,22.78,16.84,50.96,26.8,81.46,26.8,5.22,0,10.36-.3,15.43-.87,3.77-4.76,7.71-9.83,11.81-15.27,39.22-51.97,5.8-103.46,2.39-132.43Z"/>
    </g>
    <rect x="288.81" y="555.25" width="70.07" height="38.57"/>
  </g>
</svg>