<svg xmlns="http://www.w3.org/2000/svg" width="377.353" height="154.745" viewBox="0 0 377.353 154.745">
  <g id="Group_109" data-name="Group 109" transform="translate(-1293.014 -448.558)">
    <g id="Beercap_1" transform="translate(1306.863 464.428) rotate(8)">
      <g id="_19G03l" data-name="19G03l" transform="translate(4.45 3.501)">
        <g id="Group_94" data-name="Group 94">
          <path id="Path_94" data-name="Path 94" d="M103.341,42.186a14.441,14.441,0,0,0,5.3,1.45c2.462-.161,5.915-4.56,7.771-1.232,1.026,1.838.266,3.993,2.045,5.722,3.965,3.852,6.74,1.324,11.2,2.073-.082,3.332-.4,9.576,3.311,11.26,2.664,1.207,7.394-.619,6.335,4.4-.551,2.609-2.31,2.338-1.38,6.173,1.2,4.949,6.073,4.642,6.632,6.387,1.011,3.162-5.635,4.968-3.693,11.422.507,1.687,4.559,3.824,3.692,6.5-.569,1.756-5.43,1.434-6.629,6.386-.929,3.835.827,3.563,1.378,6.173,1.038,4.908-3.516,3.034-6.317,4.412-3.838,1.887-3.356,7.726-3.327,11.243-3.883,1.019-5.907-1.643-9.753.939-3.386,2.272-2.065,4.267-3.494,6.858-1.83,3.323-5.323-1.067-7.772-1.233-1.4-.094-4.8.929-5.767,1.945-.749.79-2.037,4.4-2.724,4.546-3.083.664-4.8-5.383-10.3-5.134-2.727.123-5.1,4.4-7.661,3.846-.909-.2-1.828-8.435-9.134-7.864-1.955.153-3.78,2.1-5.517,1.04-2.3-1.405.469-6.877-4.578-9.685-2.5-1.389-4.926-.921-7.631-1.106-1.39-2.335.7-4.191.6-6.709-.2-4.931-4.369-6.05-8.178-7.427-1.672-2.428,5.329-7.248,1.026-13.145-1.356-1.859-5.654-2.041-3.567-5.662,1.031-1.789,4.193-.873,4.789-5.573.626-4.929-2.179-5.379-2.479-9.559l.591-.746c3.828-.857,7.634-2.626,7.817-7.123.1-2.358-1.689-4.478-.626-6.733,2.93-.112,5.423.326,8.037-1.353,3.738-2.4,2.336-4.424,3.338-7.671,1.274-4.13,4.211-.8,7.045-.714,6.614.2,7.6-7.668,8.466-7.856,3.1-.11,4.434,3.358,7.674,3.608,5.616.434,7.291-5.378,9.609-4.786,2,.653,2.8,4.051,3.868,4.93Z" transform="translate(-43.368 -35.928)"/>
          <path id="Path_95" data-name="Path 95" d="M90.936,130.246c-1.658,0-2.935-1.209-4.175-2.383-1.517-1.436-3.085-2.921-5.573-2.808-.862.039-1.91.891-2.924,1.715-1.457,1.184-3.11,2.528-5.066,2.1-.881-.191-1.2-.967-1.69-2.143-1.214-2.929-2.861-6.027-7.072-5.7a5.99,5.99,0,0,0-1.78.593c-1.276.564-2.862,1.265-4.5.263-1.481-.9-1.625-2.59-1.764-4.22-.18-2.105-.349-4.094-2.769-5.44a9.658,9.658,0,0,0-4.958-.888c-.686,0-1.394-.008-2.136-.059l-.671-.046-.344-.577c-1.139-1.914-.55-3.633-.076-5.012a6.436,6.436,0,0,0,.5-2.3c-.137-3.473-2.561-4.579-6.535-5.987-.267-.1-.533-.189-.8-.285l-.387-.14-.234-.339c-1.076-1.563-.17-3.371.706-5.117,1.238-2.466,2.518-5.015.34-8A5.333,5.333,0,0,0,37.511,82.4c-1.111-.637-2.37-1.359-2.757-2.791a4.115,4.115,0,0,1,.627-3.18,4.5,4.5,0,0,1,2.241-1.766c1.166-.548,2.089-.981,2.387-3.328a6.611,6.611,0,0,0-1-4.764,10.2,10.2,0,0,1-1.482-4.541l-.036-.5,1.182-1.493.443-.1c4.527-1.013,6.692-2.9,6.817-5.924a7.56,7.56,0,0,0-.441-2.349c-.424-1.45-.906-3.093-.064-4.879l.331-.705.778-.03c.631-.024,1.232-.026,1.814-.023,2.135,0,3.821,0,5.579-1.126,2.051-1.318,2.136-2.268,2.292-3.992a13.6,13.6,0,0,1,.515-2.977A4.057,4.057,0,0,1,58.7,35.257c1.351-.651,2.8-.083,4.074.416a7.506,7.506,0,0,0,2.266.641c3.731.112,5.291-2.872,6.462-5.68.492-1.179.817-1.958,1.694-2.148l.11-.024.113,0c2.056-.078,3.466,1.033,4.708,2.01a5.852,5.852,0,0,0,3.11,1.6c2.731.211,4.345-1.385,5.769-2.792,1.183-1.17,2.407-2.379,4.059-1.958l.081.023c1.738.568,2.678,2.342,3.433,3.767a7.357,7.357,0,0,0,.844,1.385,15.236,15.236,0,0,0,4.406,1.168,7.076,7.076,0,0,0,2.275-1.04c1.408-.825,3-1.758,4.591-1.326a3.473,3.473,0,0,1,2.108,1.789,7.856,7.856,0,0,1,.811,2.827,4.031,4.031,0,0,0,1.008,2.6c2.164,2.1,3.7,1.95,6.033,1.717a16.135,16.135,0,0,1,4.489.012l1.1.184-.039,1.521c-.078,2.931-.224,8.385,2.569,9.652a7.934,7.934,0,0,0,2.366.428c1.512.13,3.227.277,4.208,1.6a4.563,4.563,0,0,1,.484,3.8,6.869,6.869,0,0,1-1.067,2.465c-.5.8-.784,1.233-.321,3.142.613,2.528,2.388,3.347,3.954,4.069,1.17.541,2.276,1.051,2.652,2.229.632,1.977-.64,3.509-1.761,4.862-1.473,1.776-2.866,3.455-1.925,6.582a6.843,6.843,0,0,0,1.245,1.5c1.363,1.4,3.229,3.328,2.439,5.765-.383,1.18-1.54,1.714-2.659,2.23-1.562.721-3.332,1.536-3.943,4.064-.462,1.909-.185,2.345.32,3.141a6.869,6.869,0,0,1,1.066,2.465,4.5,4.5,0,0,1-.455,3.708c-.931,1.277-2.57,1.445-4.017,1.593a7.88,7.88,0,0,0-2.534.525c-2.768,1.362-2.686,5.828-2.627,9.088.006.347.013.679.015.994l.008,1-.965.253a10.388,10.388,0,0,1-4.705.024c-1.652-.277-2.845-.478-4.659.74a4.175,4.175,0,0,0-2.123,3.405,9.178,9.178,0,0,1-.962,3.008,3.449,3.449,0,0,1-2.092,1.791c-1.59.441-3.2-.5-4.616-1.324a7.2,7.2,0,0,0-2.272-1.039,9.761,9.761,0,0,0-4.751,1.548,13.5,13.5,0,0,0-.967,1.792c-.96,1.965-1.463,2.918-2.417,3.124a3.59,3.59,0,0,1-.759.082Zm-.185-2.393Zm-9.3-5.367c3.354,0,5.491,2.023,7.067,3.516,1.033.977,1.743,1.62,2.362,1.671.258-.4.664-1.228.924-1.76a10.618,10.618,0,0,1,1.41-2.432c1.328-1.4,5.165-2.45,6.783-2.342a8.342,8.342,0,0,1,3.391,1.382c.933.543,2.092,1.22,2.642,1.069.175-.049.353-.236.53-.557a6.865,6.865,0,0,0,.686-2.231,6.632,6.632,0,0,1,3.216-5.072,7.86,7.86,0,0,1,6.511-1.139,9.9,9.9,0,0,0,2.658.2c-.068-3.725-.13-9.268,4.06-11.328a9.878,9.878,0,0,1,3.4-.776c.913-.094,1.949-.2,2.207-.554.086-.118.261-.518.018-1.667a4.419,4.419,0,0,0-.723-1.621c-.775-1.219-1.314-2.37-.647-5.119.9-3.733,3.586-4.97,5.361-5.788a5.719,5.719,0,0,0,1.3-.717c.268-.893-.6-1.877-1.848-3.165a6.972,6.972,0,0,1-1.859-2.545c-1.337-4.442.827-7.051,2.407-8.955,1.024-1.234,1.464-1.846,1.3-2.417a5.841,5.841,0,0,0-1.293-.71c-1.779-.821-4.466-2.062-5.37-5.793-.667-2.749-.126-3.9.649-5.12a4.429,4.429,0,0,0,.723-1.621,2.525,2.525,0,0,0-.036-1.74c-.294-.4-1.4-.492-2.37-.575a9.8,9.8,0,0,1-3.2-.647c-4.058-1.838-4.177-7.472-4.094-11.28a17.905,17.905,0,0,0-2.712.128c-2.485.248-5.054.5-8.073-2.429a6.412,6.412,0,0,1-1.758-4.068,5.625,5.625,0,0,0-.513-1.95c-.182-.326-.365-.516-.543-.565-.548-.149-1.7.524-2.622,1.065a8.265,8.265,0,0,1-3.4,1.386c-1.188.076-5.161-.888-6.2-1.74h0a7.006,7.006,0,0,1-1.486-2.17c-.525-.993-1.177-2.221-1.909-2.511h0c-.28,0-1.13.841-1.594,1.3-1.541,1.523-3.866,3.828-7.769,3.525a8.117,8.117,0,0,1-4.5-2.141,6.107,6.107,0,0,0-2.442-1.419c-.077.175-.161.376-.236.557-.989,2.371-3.031,7.259-8.607,7.26-.1,0-.2,0-.3-.005a9.456,9.456,0,0,1-3.123-.816c-.749-.294-1.681-.659-2.026-.493-.08.039-.358.231-.633,1.12a11.254,11.254,0,0,0-.411,2.451,6.587,6.587,0,0,1-3.459,5.92c-2.39,1.535-4.715,1.531-6.965,1.534-.265,0-.534,0-.807,0a6.35,6.35,0,0,0,.407,2.351,9.766,9.766,0,0,1,.542,3.174,7.5,7.5,0,0,1-3.043,5.892,14.12,14.12,0,0,1-5.315,2.322,8.088,8.088,0,0,0,1.125,3.008,9.123,9.123,0,0,1,1.3,6.313c-.475,3.744-2.5,4.695-3.839,5.324-.588.276-.957.46-1.111.727a1.928,1.928,0,0,0-.373,1.233c.109.4.879.846,1.558,1.236a7.07,7.07,0,0,1,2.308,1.8c3.1,4.248,1.161,8.106-.119,10.66a9.609,9.609,0,0,0-.924,2.244l.2.071c3.575,1.267,8.024,2.843,8.24,8.3a8.657,8.657,0,0,1-.635,3.236,4.2,4.2,0,0,0-.392,2.283c.407.012.812.014,1.207.017a11.951,11.951,0,0,1,6.19,1.211c3.611,2.009,3.891,5.29,4.077,7.462.085.994.173,2.023.546,2.25.451.275,1,.083,2.134-.42a7.925,7.925,0,0,1,9.523,1.793,15.185,15.185,0,0,1,2.733,4.673c.083.2.18.433.262.619a7.157,7.157,0,0,0,2.51-1.588c1.274-1.035,2.717-2.209,4.424-2.286.13-.006.258-.009.384-.009Zm53.174-35.277ZM74.306,30.658Z" transform="translate(-34.646 -27.233)"/>
        </g>
      </g>
      <g id="_19G03l-2" data-name="19G03l" transform="translate(0.493 0)">
        <g id="Group_95" data-name="Group 95">
          <path id="Path_96" data-name="Path 96" d="M72.521,14.946a14.441,14.441,0,0,0,5.3,1.45c2.462-.161,5.915-4.56,7.771-1.232,1.026,1.838.266,3.993,2.045,5.722,3.965,3.852,6.74,1.324,11.2,2.073-.082,3.332-.4,9.576,3.311,11.26,2.664,1.207,7.394-.619,6.335,4.4-.551,2.609-2.31,2.338-1.38,6.173,1.2,4.949,6.073,4.642,6.632,6.386,1.011,3.162-5.635,4.968-3.693,11.422.507,1.687,4.559,3.824,3.692,6.5-.569,1.756-5.43,1.433-6.629,6.386-.929,3.835.827,3.563,1.378,6.173,1.038,4.908-3.516,3.034-6.317,4.412-3.838,1.887-3.356,7.726-3.327,11.243-3.883,1.019-5.907-1.643-9.753.939-3.386,2.272-2.065,4.267-3.494,6.858-1.83,3.323-5.323-1.067-7.772-1.233-1.4-.094-4.8.929-5.767,1.945-.749.79-2.037,4.4-2.724,4.546-3.083.664-4.8-5.383-10.3-5.134-2.727.123-5.1,4.4-7.661,3.846-.909-.2-1.828-8.435-9.134-7.864-1.955.153-3.78,2.1-5.517,1.04-2.3-1.405.469-6.877-4.578-9.685-2.5-1.389-4.926-.921-7.631-1.106-1.39-2.335.7-4.191.6-6.709-.2-4.931-4.369-6.05-8.178-7.427-1.672-2.428,5.329-7.248,1.026-13.145-1.356-1.859-5.654-2.041-3.567-5.662,1.031-1.789,4.193-.873,4.789-5.573.626-4.929-2.178-5.379-2.479-9.559l.591-.746c3.828-.857,7.634-2.626,7.817-7.123.1-2.358-1.689-4.478-.626-6.733,2.93-.112,5.423.326,8.037-1.353,3.738-2.4,2.336-4.424,3.338-7.671,1.274-4.13,4.211-.8,7.045-.714,6.614.2,7.6-7.668,8.466-7.856,3.1-.11,4.434,3.358,7.674,3.608,5.616.434,7.291-5.378,9.609-4.786,2,.653,2.8,4.051,3.868,4.93Z" transform="translate(-12.549 -8.687)" fill="#1faeff"/>
          <path id="Path_97" data-name="Path 97" d="M60.126,103c-1.658,0-2.935-1.209-4.175-2.383-1.517-1.436-3.087-2.918-5.573-2.808-.862.039-1.91.891-2.924,1.715-1.457,1.184-3.108,2.528-5.066,2.1-.881-.191-1.2-.967-1.69-2.143-1.215-2.929-2.864-6.027-7.072-5.7a6.039,6.039,0,0,0-1.78.593c-1.276.564-2.863,1.265-4.5.263-1.481-.9-1.625-2.59-1.764-4.22-.18-2.105-.349-4.094-2.769-5.44a9.658,9.658,0,0,0-4.958-.888c-.686,0-1.394-.008-2.136-.059l-.671-.046-.344-.577c-1.139-1.914-.55-3.633-.076-5.012a6.437,6.437,0,0,0,.5-2.3c-.137-3.473-2.56-4.579-6.535-5.987-.267-.1-.533-.189-.8-.285l-.387-.14-.234-.339C6.09,67.784,7,65.977,7.873,64.23c1.237-2.466,2.518-5.015.34-8A5.308,5.308,0,0,0,6.7,55.144c-1.111-.637-2.37-1.359-2.757-2.791a4.115,4.115,0,0,1,.627-3.18,4.5,4.5,0,0,1,2.241-1.766c1.168-.548,2.089-.981,2.387-3.328a6.611,6.611,0,0,0-1-4.764,10.2,10.2,0,0,1-1.482-4.541l-.036-.5,1.182-1.493.443-.1c4.527-1.013,6.692-2.9,6.817-5.924a7.56,7.56,0,0,0-.441-2.349c-.424-1.45-.906-3.093-.064-4.878l.331-.705.778-.03c.631-.024,1.232-.026,1.815-.023,2.135,0,3.821,0,5.579-1.126,2.051-1.318,2.136-2.268,2.292-3.992a13.6,13.6,0,0,1,.515-2.977A4.057,4.057,0,0,1,27.893,8c1.351-.651,2.8-.083,4.074.416a7.506,7.506,0,0,0,2.266.641c3.73.116,5.291-2.872,6.462-5.68.492-1.179.817-1.959,1.694-2.148l.11-.024.113,0c2.058-.078,3.466,1.033,4.708,2.01a5.852,5.852,0,0,0,3.11,1.6c2.732.212,4.345-1.385,5.769-2.792C57.382.853,58.606-.357,60.258.066l.081.023c1.738.568,2.678,2.342,3.433,3.767a7.358,7.358,0,0,0,.844,1.385,15.206,15.206,0,0,0,4.406,1.168A7.064,7.064,0,0,0,71.3,5.368c1.408-.825,3-1.758,4.591-1.326A3.473,3.473,0,0,1,78,5.832a7.857,7.857,0,0,1,.811,2.827,4.028,4.028,0,0,0,1.008,2.6c2.164,2.1,3.7,1.95,6.033,1.717a16.135,16.135,0,0,1,4.489.012l1.1.184L91.4,14.692c-.078,2.931-.225,8.386,2.569,9.652a7.934,7.934,0,0,0,2.366.428c1.512.13,3.227.277,4.209,1.6a4.561,4.561,0,0,1,.484,3.8,6.868,6.868,0,0,1-1.067,2.465c-.5.8-.784,1.233-.321,3.142.613,2.528,2.388,3.346,3.954,4.069,1.17.541,2.276,1.051,2.652,2.229.632,1.977-.64,3.509-1.761,4.862-1.473,1.776-2.866,3.455-1.925,6.58a6.813,6.813,0,0,0,1.245,1.5c1.363,1.4,3.229,3.328,2.439,5.765-.383,1.18-1.489,1.69-2.659,2.23-1.562.721-3.332,1.536-3.943,4.064-.462,1.909-.185,2.347.32,3.141a6.89,6.89,0,0,1,1.067,2.465,4.5,4.5,0,0,1-.455,3.708c-.933,1.277-2.57,1.445-4.017,1.593a7.845,7.845,0,0,0-2.534.527c-2.768,1.362-2.686,5.828-2.626,9.088.006.347.013.679.015.994l.008,1-.965.253a10.388,10.388,0,0,1-4.705.024c-1.652-.277-2.845-.478-4.659.739a4.175,4.175,0,0,0-2.123,3.405A9.178,9.178,0,0,1,78,97.017a3.449,3.449,0,0,1-2.092,1.791c-1.59.439-3.2-.5-4.616-1.326a7.158,7.158,0,0,0-2.272-1.038,9.774,9.774,0,0,0-4.751,1.548,13.565,13.565,0,0,0-.967,1.792c-.96,1.965-1.463,2.918-2.417,3.124a3.59,3.59,0,0,1-.759.082Zm-9.481-7.76c3.354,0,5.491,2.023,7.067,3.516,1.033.978,1.743,1.62,2.362,1.671.258-.4.664-1.228.924-1.76a10.588,10.588,0,0,1,1.41-2.432c1.329-1.4,5.165-2.448,6.783-2.342a8.342,8.342,0,0,1,3.391,1.382c.933.543,2.094,1.22,2.642,1.069.175-.049.353-.236.531-.557a6.856,6.856,0,0,0,.686-2.231,6.632,6.632,0,0,1,3.216-5.072,7.853,7.853,0,0,1,6.511-1.138,9.9,9.9,0,0,0,2.658.2c-.068-3.725-.13-9.268,4.06-11.328a9.878,9.878,0,0,1,3.4-.776c.913-.094,1.949-.2,2.207-.554.086-.118.261-.518.018-1.667a4.419,4.419,0,0,0-.723-1.621c-.775-1.219-1.314-2.37-.647-5.119.9-3.733,3.586-4.97,5.361-5.788a5.718,5.718,0,0,0,1.3-.717c.268-.893-.6-1.877-1.848-3.165a6.972,6.972,0,0,1-1.859-2.545c-1.337-4.442.827-7.051,2.407-8.955,1.024-1.234,1.463-1.846,1.3-2.417a5.841,5.841,0,0,0-1.293-.71c-1.779-.821-4.466-2.062-5.37-5.793-.667-2.749-.126-3.9.649-5.12a4.419,4.419,0,0,0,.723-1.621,2.535,2.535,0,0,0-.035-1.74c-.294-.4-1.4-.492-2.37-.575a9.8,9.8,0,0,1-3.2-.647c-4.058-1.838-4.177-7.471-4.094-11.28a18.081,18.081,0,0,0-2.712.128c-2.484.248-5.053.5-8.073-2.429a6.412,6.412,0,0,1-1.758-4.068,5.618,5.618,0,0,0-.513-1.949c-.182-.326-.365-.516-.543-.565-.548-.15-1.7.524-2.622,1.065a8.263,8.263,0,0,1-3.4,1.386c-1.184.08-5.16-.886-6.2-1.74h0a7.006,7.006,0,0,1-1.486-2.17c-.525-.993-1.177-2.221-1.909-2.51h0c-.28,0-1.13.841-1.594,1.3-1.541,1.523-3.869,3.825-7.769,3.525a8.117,8.117,0,0,1-4.5-2.141A6.107,6.107,0,0,0,43.3,3.814c-.077.175-.161.376-.236.557-.989,2.371-3.03,7.259-8.607,7.259-.1,0-.2,0-.3-.005a9.456,9.456,0,0,1-3.123-.816c-.749-.294-1.681-.66-2.026-.493-.08.039-.358.231-.633,1.12a11.255,11.255,0,0,0-.411,2.451,6.587,6.587,0,0,1-3.459,5.92c-2.39,1.536-4.718,1.532-6.965,1.534-.265,0-.534,0-.807,0a6.35,6.35,0,0,0,.407,2.351,9.766,9.766,0,0,1,.542,3.174,7.492,7.492,0,0,1-3.043,5.891,14.12,14.12,0,0,1-5.315,2.322,8.088,8.088,0,0,0,1.125,3.008,9.115,9.115,0,0,1,1.3,6.313c-.475,3.744-2.5,4.695-3.839,5.326-.588.276-.957.46-1.111.727a1.926,1.926,0,0,0-.373,1.233c.109.4.879.846,1.557,1.236a7.07,7.07,0,0,1,2.308,1.8c3.1,4.248,1.161,8.106-.119,10.66a9.609,9.609,0,0,0-.924,2.244l.2.071c3.575,1.267,8.024,2.843,8.24,8.3a8.657,8.657,0,0,1-.635,3.236,4.2,4.2,0,0,0-.392,2.283c.407.012.812.014,1.207.017a11.951,11.951,0,0,1,6.19,1.211c3.611,2.009,3.891,5.29,4.077,7.462.085.994.173,2.023.546,2.25.451.275,1,.083,2.134-.42a7.925,7.925,0,0,1,9.523,1.793A15.185,15.185,0,0,1,43.068,98.5c.083.2.18.433.262.619a7.138,7.138,0,0,0,2.51-1.588c1.274-1.035,2.717-2.209,4.424-2.286.13-.006.258-.009.384-.009ZM43.494,3.408Z" transform="translate(-3.836 0.02)"/>
        </g>
      </g>
      <g id="Bril" transform="translate(0 32.476)">
        <ellipse id="Ellipse_14" data-name="Ellipse 14" cx="19.016" cy="19.016" rx="19.016" ry="19.016" transform="translate(0 0.018)"/>
        <path id="Path_98" data-name="Path 98" d="M379.277,271.844a19.034,19.034,0,1,1-19.034-19.034A19.033,19.033,0,0,1,379.277,271.844Z" transform="translate(-297.382 -252.81)"/>
        <g id="Group_96" data-name="Group 96" transform="translate(45.217 1.389)">
          <path id="Path_99" data-name="Path 99" d="M436.5,376.175q.054-.225.123-.435-.094.2-.181.42Z" transform="translate(-425.596 -361.338)" fill="none"/>
          <path id="Path_100" data-name="Path 100" d="M437.85,365.055a6.375,6.375,0,0,1,1.042-1.575A3.245,3.245,0,0,0,437.85,365.055Z" transform="translate(-426.825 -350.653)" fill="none"/>
          <path id="Path_101" data-name="Path 101" d="M362.647,291.465c1.643-2.958,2.081-3.943.876-7.23a10.624,10.624,0,0,1-.6-5.779l-.058-.015c.058-.148.118-.286.181-.42a3.237,3.237,0,0,1,1.042-1.575c.979-1.1,2.092-1.685,2.732-2.939,1.324-2.595,2.1-5.83,3.445-8.464a3.112,3.112,0,0,1,.162-1.405c-.253-.01-.506-.018-.762-.018a17.643,17.643,0,0,0-10.474,31.84,18.19,18.19,0,0,0,3.457-4Z" transform="translate(-352.02 -263.62)"/>
          <path id="Path_102" data-name="Path 102" d="M508.635,271.26a1.634,1.634,0,0,1-.754,1.4c-.429,3.052-1.45,6.032-1.941,9.066-.252,1.558.606,3.123.7,4.74h0c.438,3.725,4.736,10.345-.308,17.027-.528.7-1.034,1.351-1.52,1.964a17.645,17.645,0,0,0,3.824-34.194Z" transform="translate(-485.184 -270.279)"/>
          <path id="Path_103" data-name="Path 103" d="M422.142,279.937h0c-.092-1.617-.949-3.182-.7-4.74.491-3.034,1.512-6.014,1.941-9.066a1.633,1.633,0,0,0,.754-1.4,17.588,17.588,0,0,0-5.045-.962,3.112,3.112,0,0,0-.162,1.405c-1.342,2.633-2.121,5.869-3.445,8.464-.64,1.254-1.755,1.843-2.732,2.939a6.411,6.411,0,0,0-1.042,1.575c-.046.14-.089.285-.123.435a10.613,10.613,0,0,0,.6,5.779c1.2,3.286.767,4.272-.876,7.23a18.191,18.191,0,0,1-3.457,4,17.566,17.566,0,0,0,10.474,3.445,17.744,17.744,0,0,0,1.983-.112c.486-.611.992-1.264,1.52-1.964,5.043-6.682.746-13.3.308-17.027Z" transform="translate(-400.687 -263.751)" fill="#fff"/>
        </g>
        <g id="Group_97" data-name="Group 97" transform="translate(1.389 1.407)">
          <path id="Path_104" data-name="Path 104" d="M83.572,374.21c.039-.162.083-.319.134-.47-.068.145-.134.294-.2.453Z" transform="translate(-74.172 -359.613)" fill="none"/>
          <path id="Path_105" data-name="Path 105" d="M85.03,362.228a6.911,6.911,0,0,1,1.123-1.7A3.484,3.484,0,0,0,85.03,362.228Z" transform="translate(-75.496 -348.1)" fill="none"/>
          <path id="Path_106" data-name="Path 106" d="M21.425,291.577c1.642-2.954,2.08-3.94.876-7.223a10.6,10.6,0,0,1-.6-5.773l-.058-.015q.087-.22.181-.42a3.227,3.227,0,0,1,1.04-1.572c.977-1.094,2.09-1.683,2.73-2.936,1.323-2.592,2.1-5.825,3.441-8.456a3.107,3.107,0,0,1,.162-1.4c-.252-.01-.506-.018-.76-.018a17.626,17.626,0,0,0-10.465,31.809,18.153,18.153,0,0,0,3.453-3.993Z" transform="translate(-10.81 -263.76)"/>
          <path id="Path_107" data-name="Path 107" d="M167.289,271.39a1.633,1.633,0,0,1-.753,1.4c-.429,3.049-1.449,6.026-1.94,9.057-.252,1.557.6,3.119.7,4.735h0c.438,3.721,4.731,10.335-.307,17.011-.527.7-1.033,1.35-1.517,1.961a17.628,17.628,0,0,0,3.82-34.161Z" transform="translate(-143.861 -270.41)"/>
          <path id="Path_108" data-name="Path 108" d="M80.849,280.051h0c-.091-1.616-.948-3.179-.7-4.736.489-3.031,1.511-6.008,1.94-9.057a1.628,1.628,0,0,0,.753-1.4,17.561,17.561,0,0,0-5.04-.961,3.107,3.107,0,0,0-.162,1.4c-1.341,2.631-2.118,5.862-3.441,8.456-.64,1.252-1.752,1.841-2.73,2.936a6.415,6.415,0,0,0-1.04,1.572c-.046.14-.089.285-.123.435a10.6,10.6,0,0,0,.6,5.772c1.2,3.283.766,4.268-.876,7.223a18.152,18.152,0,0,1-3.453,3.993,17.624,17.624,0,0,0,12.445,3.331c.484-.611.99-1.263,1.517-1.961,5.038-6.676.745-13.289.307-17.011Z" transform="translate(-59.416 -263.882)" fill="#fff"/>
        </g>
        <rect id="Rectangle_57" data-name="Rectangle 57" width="9" height="4.954" transform="translate(37.097 16.557)"/>
      </g>
    </g>
    <g id="Drop_1" transform="translate(1566.469 459.059) rotate(-7)">
      <g id="YVlhsr" transform="translate(11.555 5.35)">
        <g id="Group_98" data-name="Group 98">
          <path id="Path_109" data-name="Path 109" d="M145.929,63.423c.193,30.985,38.239,50.023,25.414,82.715-15.528,39.579-80.372,27.158-71.932-24.62,4.667-28.629,29.188-50.531,47.779-70.763.392-.326.655-.4.83-.329.524.22.248,1.771.24,1.855C147.92,55.691,145.909,60.123,145.929,63.423Z" transform="translate(-97.54 -49.277)"/>
          <path id="Path_110" data-name="Path 110" d="M129.314,162.988a41.317,41.317,0,0,1-10.93-1.477,38.245,38.245,0,0,1-22.038-15.8c-5.676-8.688-7.621-19.752-5.625-31.994,1.818-11.151,6.767-22.273,15.127-34,7.32-10.27,16.178-19.6,24.744-28.62,2.858-3.01,5.557-5.853,8.19-8.718l.05-.055.058-.048a1.889,1.889,0,0,1,1.985-.5c1.288.539,1.013,2.4.924,3.01v.013a32.442,32.442,0,0,1-1.162,5.161,23.553,23.553,0,0,0-1.162,5.841c.081,13.088,7.237,24.227,14.155,35,4.572,7.117,9.3,14.478,11.864,22.271a38.135,38.135,0,0,1,2.035,12.3,37.208,37.208,0,0,1-2.718,13.558A36.756,36.756,0,0,1,145.179,159.7a39.43,39.43,0,0,1-15.863,3.288ZM139.523,44.883c-2.354,2.543-4.764,5.083-7.3,7.752-8.512,8.966-17.315,18.236-24.544,28.377-8.157,11.442-12.979,22.256-14.74,33.06-1.9,11.679-.076,22.192,5.288,30.4a36.01,36.01,0,0,0,20.751,14.867,39.092,39.092,0,0,0,10.336,1.4,37.18,37.18,0,0,0,14.958-3.1,34.55,34.55,0,0,0,18.443-19.54c7.063-18-1.7-31.65-10.979-46.1-7.093-11.043-14.426-22.461-14.512-36.2a25.013,25.013,0,0,1,1.247-6.464A33.37,33.37,0,0,0,139.523,44.883Z" transform="translate(-89.96 -41.651)"/>
        </g>
      </g>
      <g id="YVlhsr-2" data-name="YVlhsr" transform="translate(6.349 0)">
        <g id="Group_99" data-name="Group 99">
          <path id="Path_111" data-name="Path 111" d="M114.2,30.524c.193,30.985,38.239,50.023,25.414,82.715-15.53,39.579-80.373,27.159-71.932-24.62,4.667-28.627,29.188-50.531,47.779-70.761,1.567-1.306,1.08,1.414,1.07,1.526-.34,3.41-2.352,7.842-2.331,11.142Z" transform="translate(-64.678 -15.255)" fill="#e378de"/>
          <path id="Path_112" data-name="Path 112" d="M100.907,2.248c.7,0,.383,1.791.374,1.88-.34,3.41-2.352,7.842-2.331,11.142.193,30.985,38.239,50.023,25.414,82.715-6.211,15.83-20.317,23.344-34.462,23.344-21.22,0-42.535-16.895-37.47-47.964C57.1,44.736,81.619,22.833,100.211,2.6a1.214,1.214,0,0,1,.7-.355m0-2.248h0a3.294,3.294,0,0,0-2.135.876l-.114.1-.1.11c-2.627,2.858-5.323,5.7-8.178,8.705C81.786,18.836,72.9,28.195,65.535,38.528A101.2,101.2,0,0,0,55.88,54.877,70.334,70.334,0,0,0,50.213,73a51.109,51.109,0,0,0,.613,20.9,38.766,38.766,0,0,0,8.028,15.7,38.3,38.3,0,0,0,6.53,6.069,40.032,40.032,0,0,0,7.594,4.37A42.459,42.459,0,0,0,89.9,123.576a39.806,39.806,0,0,0,21.411-6.086,37.2,37.2,0,0,0,8.768-7.749,40.211,40.211,0,0,0,6.374-10.935,38.293,38.293,0,0,0,2.8-13.961,39.193,39.193,0,0,0-2.091-12.663c-2.61-7.929-7.377-15.35-11.986-22.527a139.7,139.7,0,0,1-9.638-16.624,50.753,50.753,0,0,1-3.13-8.646,37.337,37.337,0,0,1-1.21-9.129,22.987,22.987,0,0,1,1.121-5.53A33.069,33.069,0,0,0,103.513,4.4c.31-2.112-.218-3.008-.644-3.5a2.591,2.591,0,0,0-1.963-.9h0Z" transform="translate(-49.43 0)"/>
        </g>
      </g>
      <g id="Bril-2" data-name="Bril" transform="translate(0 54.766)">
        <ellipse id="Ellipse_15" data-name="Ellipse 15" cx="19.016" cy="19.016" rx="19.016" ry="19.016" transform="translate(0 0.018)"/>
        <path id="Path_113" data-name="Path 113" d="M379.277,445.394a19.034,19.034,0,1,1-19.034-19.034A19.033,19.033,0,0,1,379.277,445.394Z" transform="translate(-297.382 -426.36)"/>
        <g id="Group_100" data-name="Group 100" transform="translate(45.217 1.389)">
          <path id="Path_114" data-name="Path 114" d="M436.5,549.715q.054-.225.123-.435-.094.2-.181.42Z" transform="translate(-425.596 -534.88)" fill="none"/>
          <path id="Path_115" data-name="Path 115" d="M437.85,538.595a6.376,6.376,0,0,1,1.042-1.575A3.245,3.245,0,0,0,437.85,538.595Z" transform="translate(-426.825 -524.194)" fill="none"/>
          <path id="Path_116" data-name="Path 116" d="M362.647,465.015c1.643-2.958,2.081-3.943.876-7.23a10.624,10.624,0,0,1-.6-5.779l-.058-.015c.058-.148.118-.286.181-.42A3.237,3.237,0,0,1,364.085,450c.979-1.1,2.092-1.685,2.732-2.939,1.324-2.595,2.1-5.83,3.445-8.464a3.112,3.112,0,0,1,.162-1.405c-.253-.01-.506-.018-.762-.018a17.643,17.643,0,0,0-10.474,31.84,18.19,18.19,0,0,0,3.457-4Z" transform="translate(-352.02 -437.17)"/>
          <path id="Path_117" data-name="Path 117" d="M508.635,444.81a1.634,1.634,0,0,1-.754,1.4c-.429,3.052-1.45,6.032-1.941,9.066-.252,1.558.606,3.123.7,4.74h0c.438,3.725,4.736,10.345-.308,17.027-.528.7-1.034,1.351-1.52,1.964a17.645,17.645,0,0,0,3.824-34.194Z" transform="translate(-485.184 -443.829)"/>
          <path id="Path_118" data-name="Path 118" d="M422.142,453.487h0c-.092-1.617-.949-3.182-.7-4.74.491-3.034,1.512-6.014,1.941-9.066a1.633,1.633,0,0,0,.754-1.4,17.588,17.588,0,0,0-5.045-.962,3.112,3.112,0,0,0-.162,1.405c-1.342,2.633-2.121,5.869-3.445,8.464-.64,1.254-1.755,1.843-2.732,2.939a6.41,6.41,0,0,0-1.042,1.575c-.046.14-.089.285-.123.435a10.613,10.613,0,0,0,.6,5.779c1.2,3.286.767,4.272-.876,7.23a18.191,18.191,0,0,1-3.457,4,17.566,17.566,0,0,0,10.474,3.445,17.744,17.744,0,0,0,1.983-.112c.486-.611.992-1.264,1.52-1.964,5.043-6.682.746-13.3.308-17.027Z" transform="translate(-400.687 -437.301)" fill="#fff"/>
        </g>
        <g id="Group_101" data-name="Group 101" transform="translate(1.389 1.407)">
          <path id="Path_119" data-name="Path 119" d="M83.572,547.76c.039-.162.083-.319.134-.47-.068.145-.134.294-.2.453Z" transform="translate(-74.172 -533.163)" fill="none"/>
          <path id="Path_120" data-name="Path 120" d="M85.03,535.768a6.91,6.91,0,0,1,1.123-1.7A3.484,3.484,0,0,0,85.03,535.768Z" transform="translate(-75.496 -521.641)" fill="none"/>
          <path id="Path_121" data-name="Path 121" d="M21.425,465.127c1.642-2.954,2.08-3.94.876-7.223a10.6,10.6,0,0,1-.6-5.772l-.058-.015q.087-.22.181-.42a3.227,3.227,0,0,1,1.04-1.572c.977-1.094,2.09-1.683,2.73-2.936,1.323-2.592,2.1-5.825,3.441-8.456a3.107,3.107,0,0,1,.162-1.4c-.252-.01-.506-.018-.76-.018a17.626,17.626,0,0,0-10.465,31.809,18.153,18.153,0,0,0,3.453-3.993Z" transform="translate(-10.81 -437.31)"/>
          <path id="Path_122" data-name="Path 122" d="M167.289,444.94a1.633,1.633,0,0,1-.753,1.4c-.429,3.049-1.449,6.026-1.94,9.057-.252,1.557.6,3.119.7,4.735h0c.438,3.721,4.731,10.335-.307,17.011-.527.7-1.033,1.35-1.517,1.961a17.628,17.628,0,0,0,3.82-34.161Z" transform="translate(-143.861 -443.96)"/>
          <path id="Path_123" data-name="Path 123" d="M80.849,453.6h0c-.091-1.616-.948-3.179-.7-4.736.489-3.031,1.511-6.008,1.94-9.057a1.628,1.628,0,0,0,.753-1.4,17.56,17.56,0,0,0-5.04-.961,3.107,3.107,0,0,0-.162,1.4c-1.341,2.631-2.118,5.862-3.441,8.456-.64,1.252-1.752,1.841-2.73,2.936a6.415,6.415,0,0,0-1.04,1.572c-.046.14-.089.285-.123.435a10.6,10.6,0,0,0,.6,5.773c1.2,3.283.766,4.268-.876,7.223a18.153,18.153,0,0,1-3.453,3.993,17.542,17.542,0,0,0,10.463,3.442,17.721,17.721,0,0,0,1.982-.112c.484-.611.99-1.263,1.517-1.961C85.58,463.936,81.287,457.322,80.849,453.6Z" transform="translate(-59.416 -437.432)" fill="#fff"/>
        </g>
        <rect id="Rectangle_58" data-name="Rectangle 58" width="9" height="4.954" transform="translate(37.097 16.556)"/>
      </g>
    </g>
    <g id="Skull_1" transform="translate(1503.092 475.734) rotate(7)">
      <g id="Group_102" data-name="Group 102" transform="translate(3.302 3.826)">
        <path id="Path_46" data-name="Path 46" d="M126.317,89.118A41.439,41.439,0,0,0,85,47.8h0A41.439,41.439,0,0,0,43.68,89.118h0v37.809s12.654,1.97,28.8,3.029l6.825,14.412L90.8,133.839l2.659,10.529,7.658-8.72,8.72,8.72L113.8,129.2a73.9,73.9,0,0,0,10.6-2.274l1.7-33.632a40.864,40.864,0,0,0,.211-4.177h0Z" transform="translate(-41.372 -45.487)"/>
        <path id="Path_46-2" data-name="Path 46" d="M69.338,32.1a41.439,41.439,0,0,1,41.318,41.318h0a41.584,41.584,0,0,1-.211,4.176l-1.7,33.632a73.9,73.9,0,0,1-10.6,2.274l-3.965,15.169-8.72-8.72-7.658,8.72-2.659-10.529L63.649,128.671l-6.825-14.412c-16.15-1.06-28.8-3.029-28.8-3.029V73.422A41.439,41.439,0,0,1,69.338,32.1m0-2.311a43.108,43.108,0,0,0-16.946,3.444A44.029,44.029,0,0,0,29.154,56.475,43.108,43.108,0,0,0,25.71,73.422v39.787l1.955.3c.123.019,12.226,1.888,27.651,2.961L61.56,129.66l1.341,2.831,2.31-2.117,8.632-7.912,1.711,6.774L76.63,133.5l2.9-3.3,6.031-6.868,6.977,6.977,2.85,2.85,1.02-3.9,3.581-13.7a73.259,73.259,0,0,0,9.422-2.114l1.557-.47.082-1.625,1.7-33.574c.144-1.44.217-2.9.217-4.352l-.339-5.453h0a43.068,43.068,0,0,0-3.1-11.494A44.037,44.037,0,0,0,86.285,33.234,43.108,43.108,0,0,0,69.339,29.79h0Z" transform="translate(-25.71 -29.79)"/>
      </g>
      <g id="Group_103" data-name="Group 103">
        <path id="Path_46-3" data-name="Path 46" d="M100.625,59.308A41.439,41.439,0,0,0,59.307,17.99h0A41.439,41.439,0,0,0,17.99,59.308h0V97.117s12.654,1.97,28.8,3.029l6.825,14.412,11.486-10.529,2.659,10.529,7.658-8.72,8.72,8.72L88.108,99.39a73.9,73.9,0,0,0,10.6-2.274l1.7-33.632a40.865,40.865,0,0,0,.211-4.177h0Z" transform="translate(-15.679 -15.679)" fill="#58b8c5"/>
        <path id="Path_46-4" data-name="Path 46" d="M43.629,2.311A41.439,41.439,0,0,1,84.947,43.629h0a41.584,41.584,0,0,1-.211,4.176l-1.7,33.632a73.9,73.9,0,0,1-10.6,2.274L68.463,98.879l-8.72-8.72-7.658,8.72L49.426,88.35,37.94,98.879,31.116,84.467c-16.15-1.06-28.8-3.029-28.8-3.029V43.629A41.439,41.439,0,0,1,43.629,2.311m0-2.311A43.108,43.108,0,0,0,26.683,3.444,44.029,44.029,0,0,0,3.445,26.683,43.087,43.087,0,0,0,0,43.629V83.416l1.955.3c.123.019,12.226,1.888,27.651,2.961L35.85,99.868l1.341,2.831,2.31-2.117,8.632-7.912,1.711,6.774,1.076,4.262,2.9-3.3,6.031-6.868,6.977,6.977,2.85,2.85,1.02-3.9,3.581-13.7A73.258,73.258,0,0,0,83.7,83.647l1.557-.47.082-1.625,1.7-33.574c.144-1.44.217-2.9.217-4.352V37.814l-.339.36a43.068,43.068,0,0,0-3.1-11.494A44.037,44.037,0,0,0,60.575,3.441,43.151,43.151,0,0,0,43.629,0Z"/>
      </g>
      <g id="Bril-3" data-name="Bril" transform="translate(15.795 34.368)">
        <ellipse id="Ellipse_16" data-name="Ellipse 16" cx="19.016" cy="19.016" rx="19.016" ry="19.016" transform="translate(43.864 0.018)"/>
        <ellipse id="Ellipse_17" data-name="Ellipse 17" cx="19.034" cy="19.034" rx="19.034" ry="19.034"/>
        <g id="Group_104" data-name="Group 104" transform="translate(1.392 1.389)">
          <path id="Path_124" data-name="Path 124" d="M322.813,390.925q-.054-.225-.123-.435.094.2.181.42Z" transform="translate(-298.428 -376.088)" fill="none"/>
          <path id="Path_125" data-name="Path 125" d="M315.622,379.8a6.373,6.373,0,0,0-1.042-1.575A3.245,3.245,0,0,1,315.622,379.8Z" transform="translate(-291.36 -365.403)" fill="none"/>
          <path id="Path_126" data-name="Path 126" d="M273.018,306.215c-1.643-2.958-2.081-3.943-.876-7.23a10.624,10.624,0,0,0,.6-5.779l.058-.015c-.058-.148-.118-.286-.181-.42a3.236,3.236,0,0,0-1.042-1.575c-.979-1.1-2.092-1.685-2.732-2.939-1.324-2.595-2.1-5.83-3.445-8.464a3.113,3.113,0,0,0-.162-1.405c.253-.01.506-.018.762-.018a17.643,17.643,0,0,1,10.474,31.84,18.191,18.191,0,0,1-3.457-4Z" transform="translate(-248.358 -278.37)"/>
          <path id="Path_127" data-name="Path 127" d="M145.644,286.02a1.633,1.633,0,0,0,.754,1.4c.429,3.052,1.45,6.032,1.941,9.066.252,1.558-.606,3.123-.7,4.74h0c-.438,3.725-4.736,10.345.308,17.027.528.7,1.034,1.351,1.52,1.964a17.645,17.645,0,0,1-3.824-34.194Z" transform="translate(-133.81 -285.037)"/>
          <path id="Path_128" data-name="Path 128" d="M227.069,294.687h0c.092-1.617.949-3.182.7-4.74-.491-3.034-1.512-6.014-1.941-9.066a1.633,1.633,0,0,1-.754-1.4,17.588,17.588,0,0,1,5.045-.962,3.113,3.113,0,0,1,.162,1.405c1.342,2.633,2.121,5.869,3.445,8.464.64,1.254,1.755,1.843,2.732,2.939A6.411,6.411,0,0,1,237.5,292.9c.046.14.089.285.123.435a10.613,10.613,0,0,1-.6,5.779c-1.2,3.286-.767,4.272.876,7.23a18.191,18.191,0,0,0,3.457,4,17.645,17.645,0,0,1-12.457,3.333c-.486-.611-.992-1.264-1.52-1.964-5.043-6.682-.746-13.3-.308-17.027Z" transform="translate(-213.238 -278.501)" fill="#fff"/>
        </g>
        <g id="Group_105" data-name="Group 105" transform="translate(45.254 1.407)">
          <path id="Path_129" data-name="Path 129" d="M675.644,388.97c-.039-.162-.083-.319-.134-.47.068.145.134.294.2.453Z" transform="translate(-649.791 -374.372)" fill="none"/>
          <path id="Path_130" data-name="Path 130" d="M667.893,376.978a6.911,6.911,0,0,0-1.123-1.7A3.484,3.484,0,0,1,667.893,376.978Z" transform="translate(-642.173 -362.85)" fill="none"/>
          <path id="Path_131" data-name="Path 131" d="M614.351,306.327c-1.642-2.954-2.08-3.94-.876-7.223a10.6,10.6,0,0,0,.6-5.772l.058-.015q-.087-.22-.181-.42a3.227,3.227,0,0,0-1.04-1.572c-.978-1.094-2.09-1.683-2.73-2.936-1.323-2.592-2.1-5.825-3.441-8.456a3.107,3.107,0,0,0-.162-1.4c.252-.01.506-.018.76-.018a17.626,17.626,0,0,1,10.465,31.809,18.152,18.152,0,0,1-3.453-3.993Z" transform="translate(-589.715 -278.51)"/>
          <path id="Path_132" data-name="Path 132" d="M487.105,286.14a1.633,1.633,0,0,0,.753,1.4c.429,3.049,1.449,6.026,1.94,9.057.252,1.557-.605,3.119-.7,4.735h0c-.438,3.721-4.731,10.335.307,17.011.527.7,1.033,1.35,1.517,1.961a17.628,17.628,0,0,1-3.82-34.161Z" transform="translate(-475.28 -285.16)"/>
          <path id="Path_133" data-name="Path 133" d="M568.466,294.811h0c.091-1.616.948-3.179.7-4.736-.489-3.031-1.511-6.008-1.94-9.057a1.628,1.628,0,0,1-.753-1.4,17.56,17.56,0,0,1,5.04-.961,3.107,3.107,0,0,1,.162,1.4c1.341,2.631,2.118,5.862,3.441,8.456.64,1.252,1.752,1.841,2.729,2.936a6.414,6.414,0,0,1,1.04,1.572c.046.14.089.285.123.435a10.6,10.6,0,0,1-.6,5.773c-1.2,3.283-.766,4.268.876,7.223a18.154,18.154,0,0,0,3.453,3.993,17.542,17.542,0,0,1-10.463,3.442,17.721,17.721,0,0,1-1.982-.112c-.484-.611-.99-1.263-1.517-1.961C563.735,305.146,568.028,298.532,568.466,294.811Z" transform="translate(-554.647 -278.641)" fill="#fff"/>
        </g>
        <rect id="Rectangle_59" data-name="Rectangle 59" width="9" height="4.954" transform="translate(35.798 16.557)"/>
      </g>
    </g>
    <g id="Splash_1" transform="translate(1387.731 466.804)">
      <path id="Path_134" data-name="Path 134" d="M154.281,65.062a7.782,7.782,0,0,0-6.817-7.126,34.229,34.229,0,0,0-4.628-.283c-1.41,0-2.771.062-3.915.121-1.717.09-3.43.263-5.084.432-2.315.235-4.5.457-6.69.468h-.033a4.956,4.956,0,0,1-.674-.04,5.642,5.642,0,0,1,.444-.925,27.415,27.415,0,0,0,2.407-5.151,5.491,5.491,0,0,0-.546-4.882,5.384,5.384,0,0,0-4.256-2.267c-.081-.005-.163-.009-.245-.012,1.391-1.933,2.794-3.918,4.1-5.954a14.528,14.528,0,0,0,2.411-8.507v-.021a8.3,8.3,0,0,0-2.423-5.6,7.787,7.787,0,0,0-5.507-2.272h0a8.152,8.152,0,0,0-2.781.495,13.112,13.112,0,0,0-4.866,2.891c-2.985,2.984-5.823,6.162-8.568,9.234l-.154.172c-.859.962-1.662,1.961-2.439,2.929a37.508,37.508,0,0,1-3.942,4.426A4.348,4.348,0,0,1,98.135,44.4a4.783,4.783,0,0,1-.9-2.474,33.051,33.051,0,0,0-1.5-6.2,5.643,5.643,0,0,0-5.206-3.931,5.963,5.963,0,0,0-4.408,2.116,9.533,9.533,0,0,0-.763.972,20.634,20.634,0,0,0-2.4-6.062,10.686,10.686,0,0,0-4.308-4.06,6.707,6.707,0,0,0-2.876-.65,7.246,7.246,0,0,0-4.759,1.869,9.237,9.237,0,0,0-2.75,4.492,17.776,17.776,0,0,0,.179,10.217c.379,1.22.778,2.448,1.166,3.636-2.7-1.977-5.439-4.008-8.122-6.106-.306-.239-.62-.491-.924-.735-2.128-1.7-4.542-3.638-7.86-4.27a10.359,10.359,0,0,0-1.928-.185A9.093,9.093,0,0,0,43.4,36.653a9.27,9.27,0,0,0-1.364,8.264,20.847,20.847,0,0,0,6.494,9.632q.582.52,1.169,1.04c2.058,1.828,4,3.554,5.766,5.462A36.463,36.463,0,0,1,59.76,66.92a1.06,1.06,0,0,1-.087,1.408,1.262,1.262,0,0,1-1.019.577,1.718,1.718,0,0,1-.618-.131c-1.552-.6-3.058-1.344-4.654-2.128-.6-.3-1.223-.6-1.843-.9-.706-.337-1.4-.691-2.135-1.067a42.886,42.886,0,0,0-5.019-2.3,7.867,7.867,0,0,0-2.66-.492c-2.781,0-5.075,1.712-6.294,4.7a10.859,10.859,0,0,0,1.634,11.166,22.215,22.215,0,0,0,10.05,7.164l.218.085c1.215.469,2.375.917,3.459,1.442a15.656,15.656,0,0,1-1.694.492c-.709.171-1.416.324-2.164.486-1.5.325-3.057.662-4.6,1.147a7.453,7.453,0,0,0-5.327,7.323c-.179,5.909,3.189,9.681,9.009,10.092.836.059,1.742.087,2.769.087.945,0,1.892-.023,2.807-.046.438-.012.884-.022,1.329-.031-1.124,3.584-.8,6.755.943,9.192a10.137,10.137,0,0,0,4.9,3.521,24.145,24.145,0,0,0,8.2,1.2h.581l.439-.167c.433-.163.825-.307,1.2-.439l.022-.008c-.009.064-.018.131-.028.2a26.9,26.9,0,0,0-.381,4.687v.046a5.771,5.771,0,0,0,4.055,5.681,7.448,7.448,0,0,0,2.315.387,5.9,5.9,0,0,0,4.678-2.248,30.906,30.906,0,0,0,2.5-3.766,21.213,21.213,0,0,1,.79,4.092c.2,2.867.285,5.815.37,8.666.077,2.569.157,5.227.315,7.853a24.755,24.755,0,0,0,1.416,6.891v.005l0,.005a6.913,6.913,0,0,0,6.357,4.782h.134c3.71,0,5.346-3.16,5.883-4.2a12.635,12.635,0,0,0,1.41-3.8c.542-3.421,1.157-7.3,1.494-11.148.3-3.391.52-6.831.737-10.158.168-2.578.342-5.245.547-7.855a15.29,15.29,0,0,1,.479-2.766c.364.366.724.766,1.1,1.18.229.252.464.513.706.772.279.3.556.623.85.965a18.984,18.984,0,0,0,2.193,2.275,6.419,6.419,0,0,0,4.136,1.588,5.494,5.494,0,0,0,3.8-1.489A6.468,6.468,0,0,0,117,118.22l0-.024,0-.024a10.035,10.035,0,0,0-.143-3.724c-.188-.854-.442-1.643-.688-2.406l0-.013c.221.1.439.207.668.317a14.758,14.758,0,0,0,5.969,1.661l.028,0h.028c.057.005.572.033,1.378.033,4.745,0,10.76-.864,12.466-4.984a6.512,6.512,0,0,0-.3-5.291,19.633,19.633,0,0,0-4.191-5.6,24.931,24.931,0,0,0-2.918-2.441,11.74,11.74,0,0,1-2.792-2.591,6.338,6.338,0,0,1,1.236-.122h.164c.6.012,1.206.046,1.848.083.812.048,1.653.1,2.514.1.275,0,.533-.005.787-.014a24.644,24.644,0,0,0,5.342-.7l.028-.006.028-.008A6.824,6.824,0,0,0,142,90.225a7.34,7.34,0,0,0,1.571-3.765,5.754,5.754,0,0,0-.962-4.08,8.218,8.218,0,0,0-2.5-2.272l0,0,0,0a19.741,19.741,0,0,0-3.338-1.665c-.4-.157-.807-.306-1.21-.452.514-.071,1.034-.139,1.563-.209,1.17-.155,2.38-.315,3.58-.5,3.139-.488,6.7-1.04,9.865-3.3a8.884,8.884,0,0,0,3.725-8.92l0,0Z" transform="translate(-30.123 -20.081)"/>
      <g id="Group_106" data-name="Group 106" transform="translate(0 0)">
        <path id="Path_135" data-name="Path 135" d="M130.316,48.438l-.078-1.346-.173.116a5.808,5.808,0,0,0-5.017-4.393,34.076,34.076,0,0,0-4.518-.279c-2.755,0-5.543.266-8.239.524-2.4.23-4.89.468-7.309.509-1.329,0-2.179-.248-2.457-.708-.522-.863.565-2.934,1.437-4.6a16.9,16.9,0,0,0,1.439-3.23v0l0,0a3.856,3.856,0,0,0-.432-3.431,3.877,3.877,0,0,0-3.2-1.255,11.389,11.389,0,0,0-3.594.671c.89-1.092,1.9-2.107,2.948-3.156a29.243,29.243,0,0,0,4.543-5.367,10.323,10.323,0,0,0,1.829-5.618,12.386,12.386,0,0,0-1.15-6.044,6.168,6.168,0,0,0-5.6-3.8,7.467,7.467,0,0,0-2.049.3l-.026.008-.024.009a15.6,15.6,0,0,0-4.832,2.691c-3.2,3.061-6.187,6.514-9.081,9.853-2.058,2.375-4.185,4.83-6.34,7.087-1.72,1.49-2.709,1.8-3.237,1.8-.4,0-.92-.158-1.424-1.387a21.624,21.624,0,0,1-.957-3.968,26.639,26.639,0,0,0-.916-3.959l0-.008,0-.008a3.825,3.825,0,0,0-3.507-2.755A4.176,4.176,0,0,0,65.3,18.207l-.012.013-.012.014a16.746,16.746,0,0,0-2.805,5.545c-.1-.525-.2-1.052-.289-1.571-.57-3.169-1.161-6.446-2.936-9.34a7.819,7.819,0,0,0-2.524-2.79,5.891,5.891,0,0,0-3.22-1,5.223,5.223,0,0,0-3.39,1.251,7.431,7.431,0,0,0-2.262,3.69c-1.442,4.55-.055,8.711,1.286,12.736a49.179,49.179,0,0,1,1.44,4.873,4.731,4.731,0,0,1-1.165-.536c-3.68-2.678-7.487-5.448-11.216-8.363-.315-.247-.633-.5-.942-.748-2.059-1.649-4.189-3.355-7.062-3.9a8.475,8.475,0,0,0-1.588-.153,7.291,7.291,0,0,0-5.918,2.9,7.464,7.464,0,0,0-1.079,6.654c1.359,4.8,4.963,7.975,8.449,11.045a51.014,51.014,0,0,1,4.563,4.363l.006.006.006.006a38.193,38.193,0,0,1,4.511,6.155l.012.019.013.018a2.7,2.7,0,0,1,.113,2.867A3.4,3.4,0,0,1,36.4,53.823a2.69,2.69,0,0,1-1.146-.258l-.022-.01-.023-.009c-1.624-.631-3.234-1.423-4.792-2.19-.6-.294-1.216-.6-1.829-.89l-.01-.005-.01-.005c-.676-.3-1.441-.705-2.25-1.135-2.168-1.153-4.625-2.462-6.835-2.462-2.113,0-3.639,1.177-4.537,3.5A8.778,8.778,0,0,0,15,57.463a14.525,14.525,0,0,0,4.493,5.442A23.518,23.518,0,0,0,25.614,66.3a19.035,19.035,0,0,1,6.363,3.333c-2.028,1.719-4.448,2.191-7,2.688a29.787,29.787,0,0,0-4.3,1.066,5.985,5.985,0,0,0-3.48,3.071,7.182,7.182,0,0,0-.525,4.353,8.332,8.332,0,0,0,2.261,4.435,6.612,6.612,0,0,0,4.763,2.006c.1,0,.2,0,.3-.006a17.216,17.216,0,0,0,2.018.107c.8,0,1.6-.04,2.372-.077.757-.037,1.538-.076,2.292-.076a13.24,13.24,0,0,1,2.758.245,21.231,21.231,0,0,0-1.332,4.32,7.085,7.085,0,0,0,.822,5.239c1.723,2.66,5.63,4.02,11.948,4.157l.159,0,.148-.059a9.643,9.643,0,0,1,2.992-.826.724.724,0,0,1,.259.031l.017.01.014.006c.714.365.408,2.392.185,3.873a11.721,11.721,0,0,0-.217,3.069,3.67,3.67,0,0,0,.99,2.771,4.866,4.866,0,0,0,3.545,1.508,4.024,4.024,0,0,0,3.3-1.59A12.217,12.217,0,0,1,58,108.08a7.95,7.95,0,0,0,1.612-1.883,20.3,20.3,0,0,1,2.623,6.767,52.6,52.6,0,0,1,.78,8.294c.089,2.127.181,4.327.451,6.625a22.91,22.91,0,0,0,1.308,6.36,5.013,5.013,0,0,0,4.663,3.567,4.76,4.76,0,0,0,4.4-3.22,10.993,10.993,0,0,0,1.213-3.211,198.131,198.131,0,0,0,2.285-22.111c.148-2.266.3-4.607.477-6.908a14.855,14.855,0,0,1,.9-4.272c.256-.56.524-.844.8-.844.913,0,2.628,1.94,4.005,3.5.832.942,1.693,1.915,2.573,2.754l.021.021.022.018a4.631,4.631,0,0,0,2.933,1.182,3.763,3.763,0,0,0,3.051-1.644,5.946,5.946,0,0,0,.812-5.152,12.438,12.438,0,0,0-.641-2.214,7.1,7.1,0,0,1-.646-2.958,4.006,4.006,0,0,1,.628-.05,7.245,7.245,0,0,1,3.2,1.042,11.375,11.375,0,0,0,5.361,1.53c.105.005.565.027,1.252.027,3.431,0,9.393-.5,10.785-3.86a4.778,4.778,0,0,0-.279-3.852,18.165,18.165,0,0,0-3.816-5.053,23.133,23.133,0,0,0-2.719-2.268A12.809,12.809,0,0,1,102.675,77c-.284-.575-.551-1.34-.268-1.8.254-.412,1.115-.9,3.769-.9.831,0,1.7.045,2.461.085.647.033,1.26.066,1.761.066.166,0,.311,0,.444-.01a22.906,22.906,0,0,0,4.959-.65,4.992,4.992,0,0,0,3.756-4.4,4.558,4.558,0,0,0-2.622-4.69,23.187,23.187,0,0,0-5.356-2.33,25.21,25.21,0,0,1-4.358-1.771c2.186-.943,5.192-1.305,8.356-1.688,3.593-.434,7.307-.882,10.113-2.261a8.158,8.158,0,0,0,3.511-3.04,8.757,8.757,0,0,0,1.119-5.177Z" transform="translate(-12.39 -6.118)" fill="#ffb81c"/>
        <path id="Path_136" data-name="Path 136" d="M88.246,2.589a5.426,5.426,0,0,1,5.341,5.387,12.012,12.012,0,0,1-1.992,7.012c-2.23,3.472-4.727,6.773-7.117,10.142a6.126,6.126,0,0,0-.983,1.723,13.055,13.055,0,0,1,2.272-1.148,13.78,13.78,0,0,1,3.667-.763c.1,0,.208,0,.312.009a2.65,2.65,0,0,1,2.5,3.767,24.618,24.618,0,0,1-2.186,4.654c-1.733,3-.98,4.85,2.473,4.85h.046c3.967-.019,7.925-.7,11.9-.9,1.254-.066,2.518-.118,3.78-.118a31.8,31.8,0,0,1,4.279.259,5.232,5.232,0,0,1,4.6,4.907,6.346,6.346,0,0,1-2.661,6.465c-2.617,1.864-5.693,2.37-8.762,2.846-2.822.439-5.671.723-8.48,1.227a21.859,21.859,0,0,0-3.482,1.236l-.006.6A15.218,15.218,0,0,0,95.69,55.82c1.838.7,3.722,1.283,5.557,2a17.159,17.159,0,0,1,2.9,1.446c1.382.87,2.514,1.988,2.272,3.821a4.293,4.293,0,0,1-3.214,3.844,22.03,22.03,0,0,1-4.8.628c-.236.009-.473.014-.709.014-1.435,0-2.876-.152-4.315-.179l-.213,0a8.931,8.931,0,0,0-1.838.191c-2.1.457-2.907,1.932-1.731,3.7,1.8,2.7,3.919,3.388,6.213,5.684,10.632,10.632-2,11.451-6.146,11.451-.755,0-1.229-.027-1.229-.027-4.04-.32-4.732-1.622-7.766-2.5a3.8,3.8,0,0,0-1.031-.146,1.892,1.892,0,0,0-1.025.243c-.308.2-.2,1.27-.048,1.895.331,1.383.891,2.714,1.193,4.1a7.484,7.484,0,0,1,.108,2.777,3.32,3.32,0,0,1-3.188,3.056,3.878,3.878,0,0,1-2.473-.983A34.187,34.187,0,0,1,71.389,93.8a36.1,36.1,0,0,0-2.663-2.763,2.507,2.507,0,0,0-1.571-.722c-.7,0-1.283.518-1.634,1.544a17.712,17.712,0,0,0-.89,4.318c-.471,5.993-.758,12-1.282,17.989-.321,3.671-.894,7.324-1.472,10.968a10.37,10.37,0,0,1-1.152,3.019c-.757,1.46-1.758,2.8-3.584,2.8h-.08a4.325,4.325,0,0,1-3.977-3.079,22.185,22.185,0,0,1-1.268-6.171c-.331-5.508-.31-11.038-.686-16.542A33.756,33.756,0,0,0,49.6,98.288,12.073,12.073,0,0,0,47.912,95.6c-.673,1.269-1.151,2.275-1.724,3.225a40.642,40.642,0,0,1-2.944,4.57,3.3,3.3,0,0,1-2.663,1.283,4.878,4.878,0,0,1-1.509-.258,3.207,3.207,0,0,1-2.271-3.282,24.351,24.351,0,0,1,.348-4.256c.29-1.883.1-2.984-.741-3.34a1.851,1.851,0,0,0-.726-.13,6.122,6.122,0,0,0-1.943.42c-.419.148-.836.3-1.252.459h-.1c-13.315,0-12.788-7-11.454-10.9.172-.19.344-.38.511-.575a5.9,5.9,0,0,0,.642-1.988,8.525,8.525,0,0,0-1.9-.461l-.488,0c-1.828,0-3.66.091-5.486.091-.863,0-1.726-.021-2.587-.081-4.5-.317-6.738-2.98-6.6-7.431a4.871,4.871,0,0,1,3.514-4.931c2.152-.677,4.4-1.056,6.593-1.586a10.4,10.4,0,0,0,5.566-2.888,18.041,18.041,0,0,0-2.615-2.08,41.652,41.652,0,0,0-4.6-1.985,19.735,19.735,0,0,1-8.925-6.317,8.272,8.272,0,0,1-1.3-8.618c.808-1.977,2.141-3.087,3.9-3.087a5.3,5.3,0,0,1,1.783.338c2.388.859,4.613,2.17,6.916,3.268,2.216,1.056,4.392,2.216,6.674,3.1a4.29,4.29,0,0,0,1.556.307,3.865,3.865,0,0,0,3-1.494,3.638,3.638,0,0,0,.321-4.429,39.51,39.51,0,0,0-4.6-6.277c-2.2-2.381-4.686-4.507-7.111-6.676a18.3,18.3,0,0,1-5.738-8.438,6.481,6.481,0,0,1,6.255-8.565,7.707,7.707,0,0,1,1.442.139c3.1.592,5.3,2.647,7.674,4.5,3.68,2.877,7.46,5.631,11.238,8.38a14.24,14.24,0,0,0,2.631,1.114c-.225-1.156-.3-1.863-.5-2.529-.759-2.444-1.585-4.867-2.344-7.311a15.244,15.244,0,0,1-.154-8.745c.75-2.692,2.823-4.466,5.015-4.466a4.142,4.142,0,0,1,1.774.4,8.206,8.206,0,0,1,3.2,3.074c1.889,3.073,2.4,6.632,3.022,10.126.17.945.4,1.879.6,2.819l.371.024a28.337,28.337,0,0,1,1.048-3.421,15.284,15.284,0,0,1,2.25-4.082,3.4,3.4,0,0,1,2.485-1.26,3.078,3.078,0,0,1,2.785,2.258,30.586,30.586,0,0,1,1.363,5.715c.514,3.029,1.716,4.632,3.426,4.632a5.957,5.957,0,0,0,3.708-1.878c2.46-2.221,4.352-5.061,6.578-7.553,2.817-3.153,5.634-6.313,8.622-9.3a10.786,10.786,0,0,1,3.914-2.288,5.57,5.57,0,0,1,1.9-.34m0-2.593h0a8.152,8.152,0,0,0-2.781.495A13.112,13.112,0,0,0,80.6,3.386c-2.985,2.984-5.823,6.162-8.568,9.234l-.154.172c-.859.962-1.662,1.961-2.439,2.929A37.508,37.508,0,0,1,65.5,20.147a4.348,4.348,0,0,1-1.942,1.209,4.783,4.783,0,0,1-.9-2.474,33.051,33.051,0,0,0-1.5-6.2,5.643,5.643,0,0,0-5.206-3.931,5.963,5.963,0,0,0-4.408,2.116,9.533,9.533,0,0,0-.763.972,20.634,20.634,0,0,0-2.4-6.062,10.686,10.686,0,0,0-4.308-4.06,6.707,6.707,0,0,0-2.876-.65,7.248,7.248,0,0,0-4.759,1.869,9.237,9.237,0,0,0-2.75,4.492,17.776,17.776,0,0,0,.179,10.217c.379,1.22.778,2.448,1.166,3.636-2.7-1.977-5.439-4.008-8.122-6.106-.306-.239-.62-.491-.924-.735-2.128-1.7-4.542-3.638-7.86-4.27A10.359,10.359,0,0,0,16.2,9.988a9.093,9.093,0,0,0-7.374,3.625,9.27,9.27,0,0,0-1.364,8.264,20.847,20.847,0,0,0,6.494,9.632q.582.52,1.169,1.04c2.058,1.828,4,3.554,5.766,5.462a36.463,36.463,0,0,1,4.294,5.868,1.06,1.06,0,0,1-.087,1.408,1.262,1.262,0,0,1-1.019.577,1.718,1.718,0,0,1-.618-.131C21.9,45.131,20.4,44.389,18.8,43.6c-.6-.3-1.223-.6-1.843-.9-.705-.337-1.4-.691-2.135-1.067a42.886,42.886,0,0,0-5.019-2.3,7.866,7.866,0,0,0-2.66-.492c-2.781,0-5.075,1.712-6.294,4.7A10.858,10.858,0,0,0,2.486,54.712a22.215,22.215,0,0,0,10.05,7.164l.218.085c1.215.469,2.375.917,3.459,1.442a15.654,15.654,0,0,1-1.694.492c-.709.171-1.416.324-2.164.486-1.5.325-3.057.662-4.6,1.147A7.453,7.453,0,0,0,2.428,72.85c-.179,5.909,3.189,9.681,9.009,10.092.836.059,1.742.087,2.769.087.945,0,1.892-.023,2.807-.046.438-.012.884-.022,1.329-.031-1.124,3.584-.8,6.755.943,9.192a10.137,10.137,0,0,0,4.9,3.521,24.145,24.145,0,0,0,8.2,1.2h.581L33.4,96.7c.433-.163.825-.307,1.2-.439l.022-.008c-.009.064-.018.131-.028.2a26.9,26.9,0,0,0-.381,4.687v.046a5.772,5.772,0,0,0,4.055,5.681,7.448,7.448,0,0,0,2.315.387,5.9,5.9,0,0,0,4.678-2.248,30.9,30.9,0,0,0,2.5-3.766,21.212,21.212,0,0,1,.79,4.092c.2,2.867.285,5.815.37,8.666.077,2.569.157,5.227.315,7.853a24.756,24.756,0,0,0,1.416,6.891v.005l0,.005a6.913,6.913,0,0,0,6.357,4.782h.134c3.71,0,5.346-3.16,5.883-4.2a12.635,12.635,0,0,0,1.41-3.8c.542-3.421,1.157-7.3,1.494-11.148.3-3.391.52-6.831.737-10.158.168-2.578.342-5.245.547-7.855a15.29,15.29,0,0,1,.479-2.766c.364.366.724.766,1.1,1.18.229.252.464.513.706.772.279.3.556.623.85.965A18.983,18.983,0,0,0,72.542,98.8a6.419,6.419,0,0,0,4.136,1.588,5.494,5.494,0,0,0,3.8-1.489,6.468,6.468,0,0,0,1.94-3.724l0-.024,0-.024a10.035,10.035,0,0,0-.143-3.724c-.188-.854-.442-1.643-.688-2.406l0-.013c.221.1.439.207.668.317a14.758,14.758,0,0,0,5.969,1.661l.028,0h.028c.057.005.572.033,1.378.033,4.745,0,10.76-.864,12.466-4.984a6.512,6.512,0,0,0-.3-5.291,19.633,19.633,0,0,0-4.191-5.6,24.929,24.929,0,0,0-2.918-2.441A11.716,11.716,0,0,1,91.93,70.1a6.337,6.337,0,0,1,1.236-.122h.164c.6.012,1.206.046,1.848.083.812.048,1.653.1,2.514.1.275,0,.533-.005.787-.014a24.644,24.644,0,0,0,5.342-.7l.028-.006.028-.008a6.824,6.824,0,0,0,3.537-2.243,7.34,7.34,0,0,0,1.571-3.765,5.754,5.754,0,0,0-.962-4.08,8.218,8.218,0,0,0-2.5-2.272l0,0,0,0A19.74,19.74,0,0,0,102.18,55.4c-.4-.157-.807-.306-1.21-.452.514-.071,1.034-.139,1.563-.209,1.17-.155,2.38-.315,3.58-.5,3.139-.488,6.7-1.04,9.865-3.3a8.884,8.884,0,0,0,3.725-8.92,7.782,7.782,0,0,0-6.817-7.126,34.229,34.229,0,0,0-4.628-.283c-1.41,0-2.771.062-3.915.121-1.717.09-3.43.263-5.084.433-2.315.235-4.5.457-6.69.468h-.033a4.955,4.955,0,0,1-.674-.04,5.642,5.642,0,0,1,.444-.925,27.414,27.414,0,0,0,2.407-5.151,5.491,5.491,0,0,0-.546-4.882,5.384,5.384,0,0,0-4.256-2.267c-.081-.005-.163-.009-.245-.012,1.391-1.933,2.794-3.918,4.1-5.954a14.528,14.528,0,0,0,2.411-8.507V7.874a8.3,8.3,0,0,0-2.423-5.6A7.8,7.8,0,0,0,88.246,0h0Zm3.391,69.626Z" transform="translate(0.016 0)"/>
      </g>
      <g id="Bril-4" data-name="Bril" transform="translate(32.501 40.807)">
        <ellipse id="Ellipse_18" data-name="Ellipse 18" cx="19.28" cy="19.28" rx="19.28" ry="19.28" transform="translate(44.476 0.019)"/>
        <ellipse id="Ellipse_19" data-name="Ellipse 19" cx="19.299" cy="19.299" rx="19.299" ry="19.299"/>
        <g id="Group_107" data-name="Group 107" transform="translate(1.41 1.409)">
          <path id="Path_137" data-name="Path 137" d="M455.636,442.772c-.036-.153-.078-.3-.126-.442.064.136.126.277.184.426l-.058.015h0Z" transform="translate(-430.909 -427.729)" fill="none"/>
          <path id="Path_138" data-name="Path 138" d="M448.346,431.5a6.466,6.466,0,0,0-1.056-1.6A3.289,3.289,0,0,1,448.346,431.5Z" transform="translate(-423.745 -416.896)" fill="none"/>
          <path id="Path_139" data-name="Path 139" d="M405.138,356.892c-1.666-3-2.11-4-.889-7.331a10.759,10.759,0,0,0,.61-5.859l.058-.015c-.058-.149-.119-.29-.184-.426a3.289,3.289,0,0,0-1.056-1.6c-.992-1.111-2.122-1.708-2.771-2.98-1.342-2.631-2.132-5.911-3.493-8.582a3.142,3.142,0,0,0-.164-1.424c.256-.01.514-.018.772-.018a17.889,17.889,0,0,1,10.62,32.284,18.45,18.45,0,0,1-3.5-4.053Z" transform="translate(-380.133 -328.66)"/>
          <path id="Path_140" data-name="Path 140" d="M275.991,336.391a1.654,1.654,0,0,0,.764,1.418c.435,3.1,1.471,6.115,1.968,9.192.256,1.58-.614,3.166-.708,4.805h0c-.444,3.776-4.8,10.489.312,17.265.536.709,1.048,1.371,1.54,1.991a17.892,17.892,0,0,1-3.877-34.672h0Z" transform="translate(-263.99 -335.397)"/>
          <path id="Path_141" data-name="Path 141" d="M358.572,345.2h0c.094-1.64.963-3.227.708-4.807-.5-3.076-1.534-6.1-1.968-9.192a1.658,1.658,0,0,1-.764-1.418,17.851,17.851,0,0,1,5.116-.975,3.141,3.141,0,0,1,.164,1.424c1.362,2.67,2.15,5.951,3.493,8.582.649,1.272,1.779,1.869,2.771,2.98a6.466,6.466,0,0,1,1.056,1.6c.048.143.09.289.126.442a10.759,10.759,0,0,1-.61,5.859c-1.222,3.332-.777,4.331.889,7.331a18.455,18.455,0,0,0,3.5,4.053,17.805,17.805,0,0,1-10.62,3.494,18.246,18.246,0,0,1-2.012-.113c-.492-.62-1-1.282-1.54-1.991-5.114-6.776-.757-13.487-.312-17.264h0Z" transform="translate(-344.547 -328.791)" fill="#fff"/>
        </g>
        <g id="Group_108" data-name="Group 108" transform="translate(45.886 1.43)">
          <path id="Path_142" data-name="Path 142" d="M813.386,440.787c-.039-.164-.085-.324-.136-.477.068.146.135.3.2.46l-.063.017Z" transform="translate(-787.174 -425.989)" fill="none"/>
          <path id="Path_143" data-name="Path 143" d="M805.519,428.622a6.964,6.964,0,0,0-1.139-1.723A3.548,3.548,0,0,1,805.519,428.622Z" transform="translate(-779.443 -414.302)" fill="none"/>
          <path id="Path_144" data-name="Path 144" d="M751.24,357.022c-1.665-3-2.108-3.995-.888-7.323a10.765,10.765,0,0,0,.61-5.853l.058-.015c-.058-.149-.119-.29-.184-.425a3.283,3.283,0,0,0-1.055-1.6c-.99-1.11-2.119-1.707-2.768-2.976-1.341-2.628-2.13-5.906-3.49-8.573a3.137,3.137,0,0,0-.164-1.423c.256-.01.513-.018.771-.018a17.871,17.871,0,0,1,10.61,32.252,18.454,18.454,0,0,1-3.5-4.049h0Z" transform="translate(-726.261 -328.82)"/>
          <path id="Path_145" data-name="Path 145" d="M622.228,336.521a1.653,1.653,0,0,0,.763,1.417c.434,3.092,1.469,6.109,1.967,9.183.256,1.577-.614,3.162-.706,4.8h0c-.444,3.773-4.8,10.479.312,17.247q.8,1.062,1.539,1.988a17.874,17.874,0,0,1-3.873-34.638h0Z" transform="translate(-610.24 -335.531)"/>
          <path id="Path_146" data-name="Path 146" d="M704.73,345.316h0c.092-1.639.962-3.223.706-4.8-.5-3.074-1.531-6.091-1.967-9.183a1.652,1.652,0,0,1-.763-1.417,17.808,17.808,0,0,1,5.111-.975,3.169,3.169,0,0,1,.164,1.423c1.36,2.668,2.148,5.945,3.49,8.573.649,1.27,1.776,1.866,2.768,2.976a6.467,6.467,0,0,1,1.055,1.6c.048.143.09.289.126.441a10.753,10.753,0,0,1-.61,5.853c-1.22,3.329-.777,4.327.888,7.323a18.391,18.391,0,0,0,3.5,4.049,17.791,17.791,0,0,1-10.61,3.49,18.188,18.188,0,0,1-2.009-.113q-.738-.929-1.539-1.988c-5.108-6.769-.755-13.474-.312-17.247h0Z" transform="translate(-690.719 -328.925)" fill="#fff"/>
        </g>
        <rect id="Rectangle_60" data-name="Rectangle 60" width="9.126" height="5.022" transform="translate(36.296 16.788)"/>
      </g>
    </g>
  </g>
</svg>
