<?xml version="1.0" encoding="UTF-8"?>
<svg id="Laag_5" data-name="Laag 5" xmlns="http://www.w3.org/2000/svg" viewBox="0 0 967.41 1062.7">
  <defs>
    <style>
      .cls-1 {
        fill: none;
      }

      .cls-2 {
        fill: #fff;
      }

      .cls-3 {
        fill: #ffb81c;
      }
    </style>
  </defs>
  <path d="M966.58,350.19c-4.15-30.78-23.99-51.52-53.07-55.48-10.89-1.48-22.67-2.2-36.03-2.2-10.98,0-21.57.48-30.48.94-13.37.7-26.7,2.05-39.58,3.36-18.02,1.83-35.04,3.56-52.08,3.64h-.26c-2.23,0-3.96-.13-5.25-.31.6-1.7,1.65-4.07,3.46-7.2,6.1-10.57,13.75-24.69,18.74-40.1,4.5-13.87,2.99-27.37-4.25-38.01-7.14-10.5-18.91-16.77-33.13-17.65-.63-.04-1.27-.07-1.91-.09,10.83-15.05,21.75-30.5,31.92-46.35,13.02-19.71,19.51-42.61,18.77-66.23v-.16c-.66-16.74-7.36-32.23-18.86-43.62-11.52-11.4-26.75-17.69-42.87-17.69h0c-7.29,0-14.58,1.29-21.65,3.85-15.97,5.78-28.72,13.35-37.88,22.51-23.24,23.23-45.33,47.97-66.7,71.89l-1.2,1.34c-6.69,7.49-12.94,15.27-18.99,22.8-10.15,12.64-19.74,24.58-30.69,34.46-7.9,7.13-13.19,9.24-15.12,9.41-1.37-1.2-4.87-6.51-7.04-19.26-2.4-14.15-5.39-31.75-11.64-48.25-7.15-18.88-22.68-30.6-40.53-30.6-12.56,0-24.75,5.85-34.32,16.47-2.18,2.42-4.14,4.96-5.94,7.57-3.9-16.08-9.37-32.03-18.69-47.19-8.7-14.15-20.92-25.67-33.54-31.61-7.14-3.36-14.67-5.06-22.39-5.06-13.23,0-26.39,5.17-37.05,14.55-10.12,8.91-17.52,21-21.41,34.97-7.33,26.13-6.85,53.65,1.39,79.54,2.95,9.5,6.06,19.06,9.08,28.31-21.04-15.39-42.34-31.2-63.23-47.54-2.38-1.86-4.83-3.82-7.19-5.72-16.57-13.27-35.36-28.32-61.19-33.24-5-.95-10.05-1.44-15.01-1.44-23.09,0-44.01,10.29-57.41,28.22-13.5,18.09-17.38,41.54-10.62,64.34,8.08,27.27,24.62,51.8,50.56,74.99,3.02,2.7,6.06,5.4,9.1,8.1,16.02,14.23,31.16,27.67,44.89,42.52,11.17,12.09,21.79,26.6,33.43,45.68,3.17,5.2,1.44,8.46-.68,10.96-3.8,4.49-6.8,4.49-7.93,4.49-1.45,0-3.07-.34-4.81-1.02-12.08-4.69-23.81-10.46-36.23-16.57-4.68-2.3-9.52-4.68-14.35-6.99-5.5-2.62-10.9-5.38-16.62-8.31-12.4-6.35-25.23-12.91-39.07-17.89-7.06-2.54-14.02-3.83-20.71-3.83-21.65,0-39.51,13.33-49,36.56-12.21,29.9-7.81,59.95,12.72,86.93,18.52,24.32,44.11,42.56,78.24,55.77l1.7.66c9.46,3.65,18.49,7.14,26.93,11.23-3.99,1.45-8.35,2.67-13.19,3.83-5.52,1.33-11.02,2.52-16.85,3.78-11.7,2.53-23.8,5.15-35.8,8.93-25.5,8.02-40.62,28.8-41.47,57.01-1.39,46,24.83,75.37,70.14,78.57,6.51.46,13.56.68,21.56.68,7.36,0,14.73-.18,21.85-.36,3.41-.09,6.88-.17,10.35-.24-8.75,27.9-6.23,52.59,7.34,71.56,8.63,12.06,21.46,21.28,38.13,27.41,16.92,6.21,38.4,9.37,63.84,9.37h4.52s3.42-1.3,3.42-1.3c3.37-1.27,6.42-2.39,9.33-3.42.06-.02.11-.04.17-.06-.07.5-.14,1.02-.22,1.56-2.05,12.02-3.05,24.29-2.97,36.49v.36c.52,21.71,12.02,37.83,31.57,44.23,6.11,2,12.17,3.01,18.02,3.01,14.4,0,27.33-6.21,36.42-17.5,7.61-9.44,13.64-19.52,19.43-29.32,3,10.96,5.44,21.53,6.15,31.86,1.53,22.32,2.22,45.27,2.88,67.47.6,20,1.22,40.69,2.45,61.14,1.1,18.32,4.81,36.37,11.02,53.65v.04l.03.04c8.19,22.5,27.15,36.77,49.49,37.23.35,0,.7.01,1.04.01,28.88,0,41.62-24.6,45.8-32.68,4.38-8.46,9.21-18.42,10.98-29.61,4.22-26.63,9.01-56.81,11.63-86.79,2.31-26.4,4.05-53.18,5.74-79.08,1.31-20.07,2.66-40.83,4.26-61.15.58-7.27,1.83-14.49,3.73-21.53,2.83,2.85,5.64,5.96,8.56,9.19,1.78,1.96,3.61,3.99,5.5,6.01,2.17,2.33,4.33,4.85,6.62,7.51,5.11,5.95,10.4,12.11,17.07,17.71,9.66,8.09,20.79,12.36,32.2,12.36s21.51-4.12,29.6-11.59c7.9-7.3,13.12-17.33,15.1-28.99l.03-.19.03-.19c1.44-9.69,1.07-19.44-1.11-28.99-1.46-6.65-3.44-12.79-5.36-18.73-.01-.03-.02-.07-.03-.1,1.72.79,3.42,1.61,5.2,2.47,10.78,5.19,23.01,11.08,46.47,12.93l.22.02h.22c.44.04,4.45.26,10.73.26,36.94,0,83.77-6.73,97.05-38.8,5.14-12.4,4.36-26.26-2.32-41.19-5.96-13.33-16.64-27.59-32.63-43.58-8.11-8.11-15.87-13.9-22.72-19-8.62-6.43-15.56-11.6-21.74-20.17,3.16-.63,6.4-.95,9.62-.95.39,0,.79,0,1.18.01h.1c4.66.09,9.39.36,14.39.65,6.32.37,12.87.75,19.57.75,2.14,0,4.15-.04,6.13-.11,14-.29,27.99-2.13,41.59-5.46l.22-.05.22-.06c11.09-2.99,20.62-9.02,27.54-17.46,6.61-8.06,10.73-17.92,12.23-29.31,1.51-11.47-1.08-22.45-7.49-31.76-4.52-6.56-10.7-12.18-19.45-17.69l-.03-.02-.03-.02c-8.21-5.12-16.96-9.48-25.99-12.96-3.13-1.22-6.28-2.38-9.42-3.52,4-.55,8.05-1.08,12.17-1.63,9.11-1.21,18.53-2.45,27.87-3.91,24.44-3.8,52.16-8.1,76.8-25.66,22.89-16.31,32.92-40.32,29-69.44l-.03.02Z"/>
  <g>
    <path class="cls-3" d="M918.06,329.47l-.61-10.48-1.35.9c-5.46-19.22-19.31-31.51-39.06-34.2-11-1.46-22.5-2.17-35.17-2.17-21.45,0-43.15,2.07-64.14,4.08-18.72,1.79-38.07,3.64-56.9,3.96-10.35-.03-16.96-1.93-19.13-5.51-4.06-6.72,4.4-22.84,11.19-35.8,4.74-9.05,9.23-17.61,11.2-25.15v-.03s.02-.03.02-.03c2.82-11.27,1.69-20.25-3.36-26.71-4.99-6.39-13.6-9.77-24.89-9.77-9.1,0-19.03,2.13-27.98,5.22,6.93-8.5,14.81-16.4,22.95-24.57,12.63-12.67,25.69-25.78,35.37-41.78,8.29-11.03,13.34-26.55,14.24-43.74.88-16.91-2.3-33.62-8.95-47.05-9.46-19.1-24.94-29.62-43.57-29.62-5.1,0-10.47.8-15.95,2.37l-.2.06-.19.07c-4.36,1.58-26.62,9.99-37.62,20.95-24.88,23.83-48.17,50.71-70.7,76.71-16.02,18.49-32.58,37.6-49.36,55.17-13.39,11.6-21.09,14.05-25.2,14.05-3.1,0-7.16-1.23-11.09-10.8-3.34-8.14-5.43-19.71-7.45-30.89-1.93-10.7-3.93-21.77-7.13-30.82l-.02-.06-.02-.06c-5.09-13.43-15.29-21.45-27.3-21.45-8.5,0-16.95,4.19-23.8,11.79l-.09.1-.09.11c-10.3,12.55-16.97,27.98-21.84,43.17-.78-4.09-1.52-8.19-2.25-12.23-4.44-24.67-9.04-50.18-22.86-72.71-4.99-9.07-11.79-16.58-19.65-21.72-7.79-5.1-16.46-7.79-25.07-7.79-9.67,0-18.79,3.37-26.39,9.74-8.05,6.76-13.98,16.42-17.61,28.73-11.23,35.42-.43,67.82,10.01,99.15,4.13,12.38,8.36,25.08,11.21,37.94-3.79-1.36-6.82-2.53-9.07-4.17-28.65-20.85-58.29-42.41-87.32-65.11-2.45-1.92-4.93-3.9-7.33-5.82-16.03-12.84-32.61-26.12-54.98-30.39-4.13-.79-8.29-1.19-12.36-1.19-18.58,0-35.37,8.22-46.07,22.54-10.8,14.46-13.86,33.34-8.4,51.8,10.58,37.37,38.64,62.09,65.78,85.99,12.25,10.79,24.92,21.95,35.52,33.97l.05.05.05.05c11.82,12.79,22.98,28.02,35.12,47.92l.09.15.1.14c4.55,6.58,4.87,14.71.88,22.32-4.56,8.7-13.58,14.54-22.43,14.54-3.05,0-6.05-.67-8.92-2.01l-.17-.08-.18-.07c-12.64-4.91-25.18-11.08-37.31-17.05-4.65-2.29-9.47-4.65-14.24-6.93l-.08-.04-.08-.04c-5.26-2.32-11.22-5.49-17.52-8.84-16.88-8.98-36.01-19.17-53.21-19.17-16.45,0-28.33,9.16-35.32,27.24-7.66,18.52-7.52,37.14.42,55.33,6.55,15,18.64,29.65,34.98,42.37,13.85,10.79,30.78,20.17,47.68,26.43,19.5,7.18,35.81,13.79,49.54,25.95-15.79,13.38-34.63,17.06-54.46,20.93-10.97,2.14-22.31,4.36-33.44,8.3-12.35,4.42-21.72,12.69-27.09,23.91-4.79,10-6.2,21.72-4.09,33.89,2.29,13.19,8.54,25.45,17.6,34.53,10.2,10.22,23.02,15.62,37.08,15.62.77,0,1.56-.02,2.34-.05,4.76.56,9.9.83,15.71.83,6.19,0,12.43-.31,18.47-.6,5.89-.29,11.97-.59,17.84-.59,8.39,0,15.27.6,21.47,1.91-4.41,10.87-8.43,22.27-10.37,33.63-2.8,16.46-.71,29.81,6.4,40.79,13.41,20.71,43.83,31.3,93.02,32.36l1.24.03,1.15-.46c10.09-4.09,18.58-6.43,23.29-6.43,1.49,0,2.01.24,2.02.24l.13.08.11.05c5.56,2.84,3.18,18.62,1.44,30.15-1.34,8.89-2.61,17.3-1.69,23.89-.51,8.06,2.15,15.51,7.71,21.57,6.74,7.35,17.06,11.74,27.6,11.74s19.92-4.51,25.7-12.38c5.84-7.73,9.86-11.39,13.4-14.63,4.11-3.75,7.8-7.11,12.55-14.66,9.85,16,16.41,32.97,20.42,52.68,4.23,20.78,5.12,42.05,6.07,64.57.69,16.56,1.41,33.69,3.51,51.58,1.03,16.91,4.45,33.57,10.18,49.51,5.85,16.87,20.1,27.77,36.3,27.77,15.1,0,27.9-9.37,34.29-25.07,3.83-7.4,8-16.01,9.44-25,10.26-57.05,14.09-115.56,17.79-172.14,1.15-17.64,2.35-35.87,3.71-53.78,1.55-15.31,3.9-26.5,6.97-33.26,1.99-4.36,4.08-6.57,6.23-6.57,7.11,0,20.46,15.1,31.18,27.23,6.48,7.33,13.18,14.91,20.03,21.44l.16.16.17.14c7.46,6.11,15.14,9.2,22.83,9.2,9.24,0,17.68-4.55,23.75-12.8,8.06-10.94,10.46-26.27,6.32-40.11-.81-5.49-2.94-11.46-4.99-17.24-2.94-8.26-5.97-16.76-5.03-23.03,1.65-.26,3.26-.39,4.89-.39,8.61,0,16.16,3.76,24.89,8.11,11.15,5.55,23.78,11.85,41.74,11.91.82.04,4.4.21,9.75.21,26.71,0,73.13-3.9,83.96-30.05,3.59-8.66,2.86-18.75-2.17-29.99-5.17-11.57-15.17-24.8-29.71-39.34-7.38-7.38-14.39-12.61-21.17-17.66-9.87-7.36-18.41-13.73-26.25-25.37-2.21-4.48-4.29-10.43-2.09-14,1.98-3.21,8.68-7.04,29.34-7.04,6.47,0,13.21.35,19.16.66,5.04.26,9.81.51,13.71.51,1.29,0,2.42-.03,3.46-.08,12.99-.27,25.98-1.97,38.61-5.06,15.83-3.79,27.6-17.56,29.24-34.26,1.56-15.85-6.25-29.8-20.41-36.51-13.08-8.49-27.63-13.4-41.7-18.14-12.02-4.05-23.47-7.91-33.93-13.79,17.02-7.34,40.42-10.16,65.05-13.14,27.97-3.38,56.89-6.87,78.73-17.6,12.34-6.06,21.28-13.81,27.33-23.67,6.7-10.92,9.63-24.48,8.71-40.3Z"/>
    <path d="M687.12,20.16c22.02,0,40.63,17.64,41.58,41.94.61,19.36-4.81,38.44-15.51,54.59-17.36,27.03-36.8,52.73-55.41,78.96-2.83,3.98-5.84,7.84-7.65,13.41,5.87-3.06,11.45-7.14,17.69-8.94,9.3-2.68,19.1-5.94,28.55-5.94.81,0,1.62.02,2.43.07,16.56,1.03,24.61,13.45,19.46,29.33-4.08,12.61-10.36,24.7-17.02,36.23-13.49,23.36-7.63,37.76,19.25,37.76h.36c30.88-.15,61.7-5.42,92.62-7.03,9.76-.51,19.6-.92,29.43-.92,11.19,0,22.35.53,33.31,2.02,20.48,2.79,32.97,17.09,35.81,38.2,2.78,20.64-3.34,37.96-20.72,50.33-20.37,14.51-44.32,18.45-68.21,22.16-21.97,3.42-44.15,5.63-66.02,9.55-9.31,1.67-18.09,6.33-27.11,9.62l-.05,4.69c5.04,2.84,9.82,6.34,15.16,8.38,14.31,5.47,28.98,9.99,43.26,15.54,7.86,3.03,15.42,6.8,22.58,11.26,10.76,6.77,19.57,15.48,17.69,29.75-1.98,15.06-10.54,26.03-25.02,29.93-12.25,3-24.79,4.64-37.4,4.89-1.84.07-3.68.11-5.52.11-11.17,0-22.39-1.18-33.59-1.39-.56-.01-1.11-.02-1.66-.02-4.81,0-9.6.5-14.31,1.49-16.31,3.56-22.63,15.04-13.48,28.79,14.01,21.03,30.51,26.38,48.37,44.25,82.77,82.77-15.57,89.15-47.85,89.15-5.88,0-9.57-.21-9.57-.21-31.45-2.49-36.84-12.63-60.46-19.5-2.4-.7-5.27-1.14-8.03-1.14-3.04,0-5.95.54-7.98,1.89-2.4,1.59-1.54,9.89-.37,14.75,2.58,10.77,6.94,21.13,9.29,31.94,1.63,7.09,1.91,14.43.84,21.62-2.55,15.07-12.91,23.79-24.82,23.79-6.29,0-13.02-2.44-19.25-7.65-8.15-6.83-14.59-15.69-21.91-23.53-6.8-7.28-13.23-15.03-20.73-21.51-4.34-3.75-8.51-5.62-12.23-5.62-5.47,0-9.99,4.03-12.72,12.02-3.7,10.87-6.03,22.17-6.93,33.62-3.67,46.66-5.9,93.43-9.98,140.05-2.5,28.58-6.96,57.02-11.46,85.39-1.29,8.12-5.13,16.07-8.97,23.5-5.89,11.37-13.69,21.79-27.9,21.79h-.62c-15.64-.33-26.21-10.91-30.96-23.97-5.56-15.46-8.88-31.64-9.87-48.04-2.58-42.88-2.41-85.93-5.34-128.78-1.24-18.06-6.84-35.97-11.89-53.54-1.95-6.89-7.79-12.68-13.17-20.96-5.24,9.88-8.96,17.71-13.42,25.11-7.3,12.09-14.12,24.65-22.92,35.58-5.51,6.84-12.69,9.99-20.73,9.99-3.76,0-7.71-.69-11.75-2.01-12.59-4.12-17.4-13.82-17.68-25.55-.07-11.1.84-22.19,2.71-33.13,2.26-14.66.78-23.23-5.77-26-1.58-.67-3.46-1.01-5.65-1.01-3.97,0-8.98,1.1-15.13,3.27-3.26,1.15-6.51,2.35-9.75,3.57h-.81c-103.66,0-99.56-54.47-89.17-84.88,1.34-1.48,2.68-2.96,3.98-4.48,3.19-3.92,3.42-10.25,5-15.48-4.93-1.25-9.86-3.54-14.8-3.59-1.27-.01-2.54-.02-3.8-.02-14.23,0-28.49.71-42.71.71-6.72,0-13.44-.16-20.14-.63-35.04-2.47-52.46-23.2-51.41-57.85.57-18.94,9.35-32.72,27.36-38.39,16.75-5.27,34.22-8.22,51.33-12.35,15.36-3.7,30.16-8.62,43.33-22.48-7.07-5.75-13.02-12.28-20.36-16.19-11.45-6.1-23.71-10.76-35.85-15.45-27.33-10.58-51.51-25.58-69.48-49.18-15.53-20.4-20.03-42.79-10.1-67.09,6.29-15.39,16.67-24.03,30.34-24.03,4.31,0,8.94.86,13.88,2.63,18.59,6.69,35.91,16.89,53.84,25.44,17.25,8.22,34.19,17.25,51.96,24.15,4.09,1.59,8.16,2.39,12.11,2.39,8.63,0,16.72-3.82,23.32-11.63,9.2-10.87,9.04-23.75,2.5-34.48-10.49-17.21-22.19-34.11-35.83-48.87-17.14-18.54-36.48-35.09-55.36-51.97-20.42-18.25-36.79-39.1-44.67-65.69-10.48-35.37,14.2-66.68,48.7-66.68,3.64,0,7.4.35,11.23,1.08,24.15,4.61,41.29,20.61,59.74,35.04,28.65,22.4,58.08,43.84,87.49,65.24,4.91,3.57,11.41,4.93,20.48,8.67-1.75-9-2.31-14.5-3.92-19.69-5.91-19.03-12.34-37.89-18.25-56.92-7.04-22.09-7.46-45.76-1.2-68.08,5.84-20.96,21.98-34.77,39.04-34.77,4.6,0,9.26,1,13.81,3.14,9.96,4.69,19.05,14.33,24.95,23.93,14.71,23.92,18.67,51.63,23.53,78.83,1.32,7.36,3.1,14.63,4.66,21.95l2.89.19c2.65-8.91,4.43-18.2,8.16-26.63,4.91-11.06,9.63-23,17.52-31.78,5.97-6.63,12.83-9.81,19.35-9.81,9,0,17.33,6.09,21.68,17.58,5.36,14.15,8.06,29.47,10.61,44.49,4,23.58,13.36,36.06,26.67,36.06,8.22,0,17.96-4.76,28.87-14.62,19.15-17.29,33.88-39.4,51.21-58.8,21.93-24.55,43.86-49.15,67.12-72.41,8.08-8.08,19.53-13.85,30.47-17.81,5-1.81,9.98-2.65,14.8-2.65M687.12,0h0c-7.29,0-14.58,1.29-21.65,3.85-15.97,5.78-28.72,13.35-37.88,22.51-23.24,23.23-45.33,47.97-66.7,71.89l-1.2,1.34c-6.69,7.49-12.94,15.27-18.99,22.8-10.15,12.64-19.74,24.58-30.69,34.46-7.9,7.13-13.19,9.24-15.12,9.41-1.37-1.2-4.87-6.51-7.04-19.26-2.4-14.15-5.39-31.75-11.64-48.25-7.15-18.88-22.68-30.6-40.53-30.6-12.56,0-24.75,5.85-34.32,16.47-2.18,2.42-4.14,4.96-5.94,7.57-3.9-16.08-9.37-32.03-18.69-47.19-8.7-14.15-20.92-25.67-33.54-31.61-7.14-3.36-14.67-5.06-22.39-5.06-13.23,0-26.38,5.17-37.05,14.55-10.12,8.91-17.52,21-21.41,34.97-7.33,26.13-6.85,53.65,1.39,79.54,2.95,9.5,6.06,19.06,9.08,28.31-21.04-15.39-42.34-31.2-63.23-47.54-2.38-1.86-4.83-3.82-7.19-5.72-16.57-13.27-35.36-28.32-61.19-33.24-5-.95-10.05-1.44-15.01-1.44-23.09,0-44.01,10.29-57.41,28.22-13.5,18.09-17.38,41.54-10.62,64.34,8.08,27.27,24.62,51.8,50.56,74.99,3.02,2.7,6.06,5.4,9.1,8.1,16.02,14.23,31.16,27.67,44.89,42.52,11.17,12.09,21.79,26.6,33.43,45.68,3.17,5.2,1.44,8.46-.68,10.96-3.8,4.49-6.8,4.49-7.93,4.49-1.45,0-3.07-.34-4.81-1.02-12.08-4.69-23.81-10.46-36.23-16.57-4.68-2.3-9.52-4.68-14.35-6.99-5.49-2.62-10.9-5.38-16.62-8.31-12.4-6.35-25.23-12.91-39.07-17.89-7.06-2.54-14.02-3.83-20.71-3.83-21.65,0-39.51,13.33-49,36.56-12.21,29.9-7.81,59.95,12.72,86.93,18.52,24.32,44.11,42.56,78.24,55.77l1.7.66c9.46,3.65,18.49,7.14,26.93,11.23-3.99,1.45-8.35,2.67-13.19,3.83-5.52,1.33-11.02,2.52-16.85,3.78-11.7,2.53-23.8,5.15-35.81,8.93-25.5,8.02-40.62,28.8-41.47,57.01-1.39,46,24.83,75.37,70.14,78.57,6.51.46,13.56.68,21.56.68,7.36,0,14.73-.18,21.85-.36,3.41-.09,6.88-.17,10.35-.24-8.75,27.9-6.23,52.59,7.34,71.56,8.63,12.06,21.46,21.28,38.13,27.41,16.92,6.21,38.4,9.37,63.84,9.37h4.52s3.42-1.3,3.42-1.3c3.37-1.27,6.42-2.39,9.33-3.42.06-.02.11-.04.17-.06-.07.5-.14,1.02-.22,1.56-2.05,12.02-3.05,24.29-2.97,36.49v.36c.52,21.71,12.03,37.83,31.57,44.23,6.11,2,12.17,3.01,18.02,3.01,14.4,0,27.33-6.21,36.42-17.5,7.61-9.44,13.64-19.52,19.43-29.32,3,10.96,5.44,21.53,6.15,31.86,1.53,22.32,2.22,45.27,2.88,67.47.6,20,1.22,40.69,2.45,61.14,1.1,18.32,4.81,36.37,11.02,53.65v.04l.03.04c8.19,22.5,27.15,36.77,49.49,37.23.35,0,.7.01,1.04.01,28.88,0,41.62-24.6,45.8-32.68,4.38-8.46,9.21-18.42,10.98-29.61,4.22-26.63,9.01-56.81,11.63-86.79,2.31-26.4,4.05-53.18,5.74-79.08,1.31-20.07,2.66-40.83,4.26-61.15.58-7.27,1.83-14.49,3.73-21.53,2.83,2.85,5.64,5.96,8.56,9.19,1.78,1.96,3.61,3.99,5.5,6.01,2.17,2.33,4.33,4.85,6.62,7.51,5.11,5.95,10.4,12.11,17.07,17.71,9.66,8.09,20.79,12.36,32.2,12.36s21.51-4.12,29.6-11.59c7.9-7.3,13.12-17.33,15.1-28.99l.03-.19.03-.19c1.44-9.69,1.07-19.44-1.11-28.99-1.46-6.65-3.44-12.79-5.36-18.73-.01-.03-.02-.07-.03-.1,1.72.79,3.42,1.61,5.2,2.47,10.78,5.19,23.01,11.08,46.47,12.93l.22.02h.22c.44.04,4.45.26,10.73.26,36.94,0,83.77-6.73,97.05-38.8,5.14-12.4,4.36-26.26-2.32-41.19-5.96-13.33-16.64-27.59-32.63-43.58-8.11-8.11-15.87-13.9-22.72-19-8.63-6.43-15.56-11.6-21.74-20.17,3.16-.63,6.4-.95,9.62-.95.39,0,.79,0,1.18.01h.1c4.66.09,9.39.36,14.39.65,6.32.37,12.87.75,19.57.75,2.14,0,4.15-.04,6.13-.11,14-.29,27.99-2.13,41.59-5.46l.22-.05.22-.06c11.09-2.99,20.62-9.02,27.54-17.46,6.61-8.06,10.73-17.92,12.23-29.31,1.51-11.47-1.08-22.45-7.49-31.76-4.52-6.56-10.7-12.18-19.45-17.69l-.03-.02-.03-.02c-8.21-5.12-16.96-9.48-25.99-12.96-3.13-1.22-6.28-2.38-9.42-3.52,4-.55,8.05-1.08,12.17-1.63,9.11-1.21,18.53-2.45,27.87-3.91,24.44-3.8,52.16-8.1,76.8-25.66,22.89-16.31,32.92-40.32,29-69.44-4.15-30.78-23.99-51.52-53.07-55.48-10.89-1.48-22.67-2.2-36.03-2.2-10.98,0-21.57.48-30.48.94-13.37.7-26.7,2.05-39.58,3.37-18.02,1.83-35.04,3.56-52.08,3.64h-.26c-2.23,0-3.96-.13-5.25-.31.6-1.7,1.65-4.07,3.46-7.2,6.1-10.57,13.75-24.69,18.74-40.1,4.5-13.87,2.99-27.37-4.25-38.01-7.14-10.5-18.91-16.77-33.13-17.65-.63-.04-1.27-.07-1.91-.09,10.83-15.05,21.75-30.5,31.92-46.35,13.02-19.71,19.51-42.61,18.77-66.23v-.16c-.66-16.74-7.36-32.23-18.86-43.62-11.54-11.4-26.77-17.68-42.89-17.68h0ZM713.52,542.05h0Z"/>
  </g>
  <g id="Bril">
    <circle cx="749.36" cy="467.94" r="150.1"/>
    <circle cx="403.26" cy="467.94" r="150.25"/>
    <g>
      <path class="cls-1" d="M456.49,445.77c-.28-1.19-.61-2.33-.98-3.44.5,1.06.98,2.16,1.43,3.32l-.45.12h0Z"/>
      <path class="cls-1" d="M455.51,442.33c-2.39-5.11-5.22-9.07-8.22-12.43,3.77,2.93,6.48,7.22,8.22,12.43Z"/>
      <path d="M458.66,548.45c-12.97-23.35-16.43-31.13-6.92-57.07,5.86-15.97,7.77-32.92,4.75-45.61l.45-.12c-.45-1.16-.93-2.26-1.43-3.32-1.74-5.21-4.45-9.5-8.22-12.43-7.72-8.65-16.52-13.3-21.57-23.2-10.45-20.48-16.6-46.02-27.19-66.81.56-4.31-.23-7.8-1.28-11.09,1.99-.08,4-.14,6.01-.14,76.91,0,139.27,62.35,139.27,139.27,0,45.95-22.26,86.7-56.59,112.07-10.49-9.65-21.53-21.19-27.28-31.55h0Z"/>
      <path d="M357.42,336.4c.55,3.92.69,7.42,5.95,11.04,3.39,24.1,11.45,47.61,15.32,71.56,1.99,12.3-4.78,24.65-5.51,37.41h0c-3.46,29.4-37.38,81.66,2.43,134.41,4.17,5.52,8.16,10.67,11.99,15.5-69.54-7.78-123.61-66.77-123.61-138.39,0-60.85,39.03-112.58,93.43-131.54h0Z"/>
      <path class="cls-2" d="M373.18,456.42h0c.73-12.77,7.5-25.12,5.51-37.42-3.87-23.95-11.94-47.47-15.32-71.56-5.26-3.62-5.39-7.12-5.95-11.04,12.56-4.37,25.93-7,39.83-7.59,1.05,3.29,1.84,6.78,1.28,11.09,10.6,20.79,16.74,46.33,27.19,66.81,5.05,9.9,13.85,14.55,21.57,23.2,3,3.36,5.83,7.32,8.22,12.43.37,1.11.7,2.25.98,3.44,3.02,12.69,1.11,29.64-4.75,45.61-9.51,25.94-6.05,33.72,6.92,57.07,5.76,10.36,16.79,21.91,27.28,31.55-23.12,17.09-51.72,27.2-82.68,27.2-5.29,0-10.52-.31-15.66-.88-3.83-4.83-7.82-9.98-11.99-15.5-39.81-52.75-5.89-105-2.43-134.4h0Z"/>
    </g>
    <g>
      <path class="cls-1" d="M814.31,444.02c-.3-1.28-.66-2.52-1.06-3.71.53,1.14,1.05,2.33,1.54,3.58l-.49.13h.01Z"/>
      <path class="cls-1" d="M813.25,440.31c-2.58-5.51-5.63-9.79-8.87-13.41,4.07,3.16,6.99,7.79,8.87,13.41Z"/>
      <path d="M804.71,548.38c-12.96-23.32-16.41-31.1-6.91-57.01,5.85-15.96,7.76-32.89,4.75-45.57l.45-.12c-.45-1.16-.93-2.26-1.43-3.31-1.74-5.21-4.44-9.49-8.21-12.42-7.71-8.64-16.5-13.29-21.55-23.17-10.44-20.46-16.58-45.98-27.17-66.74.56-4.3-.23-7.79-1.28-11.08,1.99-.08,3.99-.14,6-.14,76.84,0,139.13,62.29,139.13,139.13,0,45.91-22.24,86.62-56.53,111.96-10.48-9.64-21.51-21.17-27.26-31.52h0Z"/>
      <path d="M703.57,336.53c.55,3.92.69,7.42,5.94,11.03,3.38,24.07,11.44,47.56,15.31,71.49,1.99,12.28-4.78,24.62-5.5,37.38h0c-3.46,29.37-37.34,81.58,2.43,134.27,4.16,5.51,8.15,10.66,11.98,15.48-69.47-7.78-123.49-66.7-123.49-138.25,0-60.79,39-112.47,93.34-131.41h0Z"/>
      <path class="cls-2" d="M719.32,456.43h0c.72-12.76,7.49-25.09,5.5-37.38-3.87-23.93-11.92-47.42-15.31-71.49-5.25-3.61-5.39-7.11-5.94-11.03,12.54-4.37,25.9-7,39.79-7.59,1.04,3.28,1.83,6.77,1.28,11.08,10.59,20.77,16.72,46.28,27.17,66.74,5.05,9.89,13.83,14.53,21.55,23.17,2.99,3.35,5.82,7.31,8.21,12.42.37,1.11.7,2.25.98,3.43,3.02,12.68,1.1,29.61-4.75,45.57-9.5,25.92-6.05,33.69,6.91,57.01,5.75,10.35,16.77,21.89,27.26,31.52-23.1,17.07-51.67,27.17-82.6,27.17-5.29,0-10.51-.31-15.64-.88-3.83-4.82-7.82-9.97-11.98-15.48-39.77-52.7-5.88-104.9-2.43-134.27h0Z"/>
    </g>
    <rect x="535.58" y="448.39" width="71.05" height="39.1"/>
  </g>
</svg>