<svg id="Group_95" data-name="Group 95" xmlns="http://www.w3.org/2000/svg" xmlns:xlink="http://www.w3.org/1999/xlink" width="574.544" height="105.951" viewBox="0 0 574.544 105.951">
  <defs>
    <clipPath id="clip-path">
      <rect id="Rectangle_57" data-name="Rectangle 57" width="574.544" height="105.951" transform="translate(0 0)" fill="#e5e5e5"/>
    </clipPath>
  </defs>
  <g id="Group_94" data-name="Group 94" clip-path="url(#clip-path)">
    <path id="Path_94" data-name="Path 94" d="M98.877,42.433c-.5-3.54,2.97-7.039,1.871-10.722-.972-3.255-7.026-2.841-8.346-5.691-.915-1.976-.2-4.238-.722-6.266-2.415-9.381-7.44-3.85-12.741-6.236-4.456-2.005-3.622-11.629-11.255-10.3-2.274.395-4.392,3.146-7.2,2.862-3.1-.314-5.293-6.539-9.992-6.049-3.138.327-4.632,5.361-8.064,6.011-4.492.851-7.454-2.548-10.478-1.6-3.914,1.227-3.85,6.743-6.958,9.1L15.229,15.28,12.891,28.41c-2.108,3.287-8.047,2-9.484,6.55-1.487,4.709,2.973,6.8,2.434,10.3C5.3,48.8-.292,50.731.012,55.392c.273,4.194,5.466,5.872,6,9.107.619,3.762-2.417,7.379-1.862,9.726l8.922,6.36,2.154,10.081c5.735,3.025,10.606-1.519,14.6,4.879.909,1.457,1.038,3.406,2.129,4.859,4.5,5.989,7.921-.786,12.434-.508,4.033.248,6.307,5.913,10.063,5.913,3.8,0,5.726-4.988,8.207-5.734,4.5-1.355,8.4,3.131,12.562.627,2.926-1.762,3.09-7.081,5.695-8.311,2.68-1.266,5.912.458,8.575-1.414,3.871-2.72,1.388-8.859,2.915-12.061,1.291-2.706,8.29-3.344,9.319-6.681,1.371-4.451-2.554-7.412-1.831-11.73.6-3.6,5.411-3.778,5.112-9.034-.254-4.462-5.634-5.558-6.125-9.038" fill="#e5e5e5"/>
    <path id="Path_95" data-name="Path 95" d="M222.771,51.541c-.273-4.194-5.466-5.872-6-9.107-.619-3.762,2.417-7.379,1.862-9.726l-8.923-6.359L207.554,15.28l-12.17-2.321c-2.1-1.462-2.117-5.232-3.707-7.277-4.866-6.257-9.437.927-14.139.191C174.1,5.335,172.127.323,169.3.029c-4.667-.485-6.618,5.475-10,6.031-5.567.915-8.6-5.117-12.9,1.028-1.292,1.85-1.256,4.6-3.11,5.874-4.131,2.845-10.6-1.716-12.181,6.789-.5,2.693.346,6.02-.725,8.266-1.29,2.706-8.29,3.344-9.318,6.681-1.371,4.451,2.553,7.412,1.83,11.73-.486,2.9-3.628,3.693-4.486,5.556-3.245,7.044,4.911,8.342,5.5,12.516.5,3.541-2.97,7.039-1.871,10.722.972,3.255,7.02,2.838,8.345,5.691,1.253,2.7-.39,6.126,2.024,8.958,3.11,3.648,9.043.7,12.855,3.128,2.884,1.839,3.388,8.187,5.827,9.231,5.156,2.208,7.477-2.767,11.218-2.373,2.646.278,6.465,5.806,9.078,6.075,3.817.393,5.326-5.36,8.981-6.041,7.7-1.433,12.1,7.03,17.107-7.071l10.088-2.154,2.334-12.143c2.111-3.288,8.047-2,9.484-6.55,1.487-4.709-2.973-6.8-2.435-10.3.546-3.54,6.134-5.475,5.83-10.136" fill="#e5e5e5"/>
    <path id="Path_96" data-name="Path 96" d="M339.767,51.471c-.239-4.188-5.2-5.374-5.949-9.227-.6-3.069,1.484-4.4,1.83-6.829,1.163-8.173-6.891-6.074-8.492-9.382-.906-1.873-.2-4.284-.711-6.278-2.437-9.5-7.7-3.775-12.761-6.216C310.973,12.23,309.9,4.4,305.972,3.2L295.434,5.895c-3.478-.529-5.764-6.328-10.18-5.867-4.025.421-4.027,7.183-11.956,5.981-2.519-.382-3.649-2.468-6.583-1.568-3.545,1.088-3.091,4.157-4.559,6.513-3.369,5.409-7.918,1.47-10.914,4.068-3.582,3.105-1.516,9.929-2.979,12.995-1.243,2.6-7.648,3.615-9.232,5.237-3.394,3.476,2.156,8.361,1.747,12.2-.3,2.82-6.2,5.76-6.019,9.913.2,4.54,6.184,5.1,6.824,9.293.7,4.6-5.97,8.249.2,12.747,1.692,1.234,4.976,1.471,6.074,2.911,1.315,1.727.85,5.081,1.563,7.423,2.159,7.1,7.712,2.6,12.309,4.671,3.644,1.639,3.864,8.8,7.984,10.078,3.57,1.133,6.609-3.01,10.3-2.432,3.294.516,5.574,5.748,9.2,5.747,3.891,0,5.707-5.283,9.027-5.914,4.491-.853,7.452,2.548,10.478,1.6,4.105-1.286,4.172-7.793,6.959-9.1,3.122-1.469,6.723.986,9.586-2.4,2.946-3.485.258-7.658,1.907-11.073,1.315-2.725,8.288-3.345,9.315-6.683,1.344-4.363-2.194-6.856-1.818-10.686.432-4.4,5.384-5.087,5.1-10.078" fill="#e5e5e5"/>
    <path id="Path_97" data-name="Path 97" d="M457.626,51.444c-.059-4.291-5.475-5.385-6.087-9.01-.752-4.455,3.279-6.725,1.356-11.2-1.053-2.448-7.234-3.032-8.416-4.891-2-3.148.444-8.934-2.907-11.825-2.675-1.58-9.134.78-11.75-1.742-1.286-1.239-2.121-5.864-3.795-7.678-4.881-5.291-8.791,1.344-12.877.952-3.677-.352-6.268-6.1-9.956-6.01-4.4.208-4.741,5.025-7.274,5.822-4.515,1.419-8.561-2.131-11.332-1.4-4.6,1.214-3.6,6.554-6.56,8.472-2.931,1.9-6.388.119-8.883,2.105-4.171,3.32-1.335,9.652-2.993,12.982s-11.283,2.22-10.508,9.376c.319,2.951,2.833,4.6,1.994,9.04-.7,3.684-5.39,3.785-5.092,9.021.247,4.349,5.116,5.4,5.932,8.21,1.216,4.192-3.291,7.639-1.117,12.02,1.587,3.2,7.445,2.959,8.788,5.215,1.585,2.661-1.2,7.615,2.923,10.057,3.439,2.037,7.537-.148,10.951,2.035,2.2,1.4,2.783,5.271,4.588,7.392,5.086,5.98,7.625-.792,12.422-.5,4.422.273,6.3,6.4,10.012,6.035,3.1-.3,4.667-5.4,8.082-6.039,4.633-.86,8.752,2.988,12.192,1.289,3.272-1.615,2.821-7.055,4.92-8.358,2.924-1.814,8.183.2,10.832-2.906l1.409-11.325,9.585-5.653c2.265-3.8-2.621-8.031-2.266-11.348s5.894-5.289,5.827-10.146" fill="#e5e5e5"/>
    <path id="Path_98" data-name="Path 98" d="M569.882,64.972c-2.021-7.429,4.379-7.74,4.651-12.505.3-5.312-5.3-6.165-5.928-10.2-.511-3.277,3.452-6.9,1.332-11.269-1.322-2.722-6.876-2.618-8.015-4.969-1.014-2.091-.132-4.886-.723-7.264-1.881-7.557-8.649-3.25-12.75-5.229-1.268-.613-3.761-5.684-4.989-7.492-.147-.216.242-1.257-.218-1.738C539.6.5,533.45,6.389,530.2,5.895c-4.634-.7-5.63-8.115-12.071-4.712-2.258,1.193-3.447,4.426-6.189,4.877-4.373.719-8.239-3.524-11.843-.934-2.417,1.736-2.339,6.772-4.26,7.984-4.069,2.565-10.139-2.047-11.255,5.478-.43,2.9.646,7.213-.983,9.754-.869,1.354-6.163,2.679-8.029,4.2-6.337,5.161.7,7.562-.035,12.859-.445,3.237-5.54,6.579-5.8,9.22-.346,3.563,6.056,6.432,6.619,10.045.511,3.278-3.451,6.9-1.332,11.269,1.425,2.937,7.436,2.873,8.581,4.647,1.939,3-.564,9.147,2.907,10.828l11.326,1.414c5.949,16.725,10.24,6.362,17.11,7.034,2.8.274,4.843,5.329,8.255,5.866,4.635.729,7.214-6.213,10.909-6.592,2.193-.226,5.444,2.249,9.348,1.757,5.237-.66,3.71-6.967,6.986-8.492,3.143-1.464,6.727.975,9.583-2.4,2.946-3.485.258-7.657,1.907-11.073,1.456-3.018,11.122-4.011,10.358-9.237-.223-1.526-1.994-3.173-2.412-4.709" fill="#e5e5e5"/>
  </g>
</svg>
